<svg width="1166" height="1165" viewBox="0 0 1166 1165" fill="none" xmlns="http://www.w3.org/2000/svg">
<path d="M588.9 153.302L588.951 151.428L602.037 151.785L601.986 153.66L596.499 153.51L596.074 169.083L593.961 169.026L594.386 153.452L588.9 153.302Z" fill="#828282"/>
<path d="M614.959 170.074L616.031 157.027L617.968 157.186L617.806 159.156L617.942 159.168C618.232 158.542 618.706 158.053 619.362 157.702C620.018 157.351 620.736 157.208 621.518 157.272C621.665 157.284 621.849 157.302 622.069 157.326C622.29 157.35 622.456 157.372 622.568 157.393L622.401 159.431C622.334 159.409 622.181 159.37 621.94 159.316C621.705 159.257 621.455 159.217 621.189 159.195C620.555 159.143 619.977 159.229 619.457 159.455C618.943 159.675 618.523 160.005 618.196 160.445C617.875 160.881 617.69 161.393 617.642 161.982L616.964 170.238L614.959 170.074Z" fill="#828282"/>
<path d="M641.312 173.238C640.49 173.125 639.766 172.868 639.138 172.466C638.512 172.059 638.042 171.532 637.729 170.887C637.417 170.236 637.319 169.489 637.436 168.644C637.538 167.901 637.767 167.319 638.123 166.898C638.48 166.471 638.921 166.159 639.447 165.962C639.973 165.764 640.541 165.642 641.15 165.593C641.765 165.54 642.379 165.516 642.992 165.52C643.794 165.527 644.444 165.539 644.94 165.555C645.443 165.567 645.816 165.524 646.059 165.425C646.308 165.327 646.454 165.118 646.498 164.797L646.508 164.73C646.622 163.897 646.483 163.218 646.091 162.694C645.704 162.17 645.052 161.845 644.134 161.719C643.183 161.589 642.408 161.694 641.811 162.037C641.213 162.379 640.772 162.771 640.487 163.214L638.689 162.279C639.135 161.537 639.67 160.985 640.293 160.624C640.923 160.257 641.584 160.033 642.278 159.95C642.978 159.863 643.655 159.864 644.308 159.954C644.724 160.011 645.196 160.128 645.722 160.303C646.255 160.474 646.754 160.746 647.219 161.12C647.689 161.494 648.051 162.011 648.305 162.671C648.558 163.331 648.614 164.176 648.472 165.206L647.298 173.751L645.305 173.477L645.547 171.721L645.445 171.707C645.272 171.97 645.005 172.24 644.646 172.517C644.286 172.795 643.83 173.01 643.275 173.164C642.721 173.317 642.066 173.341 641.312 173.238ZM641.862 171.49C642.65 171.598 643.336 171.534 643.919 171.299C644.507 171.065 644.973 170.721 645.316 170.27C645.665 169.819 645.876 169.323 645.951 168.782L646.201 166.959C646.103 167.048 645.904 167.116 645.606 167.161C645.313 167.201 644.977 167.226 644.597 167.237C644.224 167.243 643.859 167.245 643.504 167.242C643.155 167.234 642.872 167.229 642.654 167.228C642.127 167.225 641.628 167.268 641.157 167.358C640.692 167.443 640.301 167.616 639.984 167.876C639.674 168.132 639.484 168.513 639.414 169.02C639.319 169.712 639.503 170.271 639.967 170.696C640.437 171.116 641.068 171.381 641.862 171.49Z" fill="#828282"/>
<path d="M665.08 177.25C663.875 177.017 662.893 176.532 662.133 175.794C661.373 175.057 660.855 174.143 660.58 173.054C660.304 171.965 660.291 170.779 660.539 169.496C660.792 168.19 661.255 167.085 661.928 166.179C662.608 165.269 663.434 164.616 664.408 164.22C665.388 163.82 666.459 163.732 667.619 163.956C668.523 164.131 669.305 164.456 669.965 164.931C670.625 165.406 671.129 165.99 671.475 166.682C671.821 167.374 671.973 168.133 671.929 168.957L669.954 168.575C669.917 167.96 669.683 167.377 669.251 166.824C668.827 166.268 668.179 165.905 667.309 165.737C666.539 165.588 665.825 165.658 665.167 165.947C664.516 166.232 663.959 166.706 663.495 167.368C663.037 168.026 662.715 168.84 662.527 169.811C662.335 170.804 662.324 171.699 662.493 172.496C662.669 173.294 663.004 173.952 663.5 174.47C664.001 174.99 664.642 175.325 665.423 175.476C665.937 175.576 666.42 175.577 666.873 175.479C667.326 175.381 667.729 175.193 668.084 174.915C668.439 174.636 668.723 174.275 668.937 173.83L670.911 174.212C670.653 174.949 670.245 175.579 669.686 176.102C669.134 176.62 668.464 176.988 667.676 177.206C666.894 177.419 666.028 177.434 665.08 177.25Z" fill="#828282"/>
<path d="M685.149 176.609L685.722 174.187L686.119 174.287L693.092 170.026L695.506 170.632L688.086 175.132L687.92 175.09L685.149 176.609ZM682.169 180.782L686.417 163.852L688.368 164.342L684.12 181.272L682.169 180.782ZM690.237 182.807L686.854 175.28L688.583 174.272L692.717 183.429L690.237 182.807Z" fill="#828282"/>
<path d="M735.612 186.87L733.74 186.721C733.739 186.399 733.683 186.066 733.574 185.723C733.473 185.376 733.279 185.05 732.992 184.743C732.706 184.437 732.288 184.182 731.739 183.979C730.988 183.7 730.298 183.641 729.669 183.802C729.047 183.959 728.638 184.301 728.443 184.829C728.269 185.298 728.302 185.731 728.542 186.129C728.782 186.527 729.231 186.951 729.889 187.401L731.544 188.524C732.543 189.198 733.21 189.908 733.544 190.657C733.881 191.4 733.89 192.2 733.572 193.058C733.311 193.761 732.876 194.314 732.265 194.718C731.66 195.124 730.939 195.354 730.101 195.406C729.263 195.459 728.368 195.309 727.414 194.955C726.162 194.491 725.227 193.835 724.608 192.987C723.989 192.14 723.764 191.153 723.933 190.028L725.889 190.245C725.814 190.968 725.953 191.583 726.305 192.09C726.661 192.598 727.226 192.995 727.999 193.281C728.878 193.607 729.645 193.68 730.3 193.498C730.962 193.314 731.391 192.958 731.587 192.43C731.745 192.004 731.728 191.592 731.536 191.194C731.347 190.79 730.969 190.402 730.405 190.029L728.537 188.791C727.512 188.107 726.839 187.388 726.519 186.633C726.206 185.875 726.207 185.072 726.521 184.225C726.778 183.533 727.2 182.992 727.786 182.604C728.378 182.217 729.069 181.998 729.858 181.945C730.652 181.894 731.481 182.029 732.344 182.349C733.559 182.799 734.413 183.419 734.908 184.209C735.409 185 735.643 185.887 735.612 186.87Z" fill="#828282"/>
<path d="M758.83 193.357L758.15 194.92L751.928 192.217L752.607 190.654L758.83 193.357ZM755.67 188.565L757.515 189.366L752.544 200.81C752.318 201.332 752.224 201.755 752.261 202.081C752.307 202.405 752.43 202.663 752.631 202.855C752.84 203.045 753.08 203.199 753.351 203.317C753.554 203.405 753.726 203.467 753.865 203.503C754.007 203.533 754.12 203.558 754.205 203.576L753.86 205.396C753.715 205.389 753.52 205.36 753.275 205.309C753.029 205.264 752.733 205.167 752.389 205.017C751.868 204.791 751.406 204.457 751.003 204.016C750.605 203.577 750.342 203.057 750.213 202.455C750.089 201.856 750.179 201.208 750.482 200.509L755.67 188.565Z" fill="#828282"/>
<path d="M774.159 209.32L777.625 202.401L779.423 203.302L773.56 215.006L771.761 214.105L772.754 212.124L772.632 212.063C772.06 212.52 771.38 212.812 770.592 212.938C769.807 213.059 768.972 212.899 768.088 212.456C767.357 212.089 766.787 211.604 766.378 210.999C765.972 210.388 765.769 209.677 765.77 208.864C765.773 208.046 766.024 207.139 766.523 206.143L770.248 198.706L772.047 199.607L768.382 206.922C767.955 207.775 767.852 208.576 768.075 209.323C768.304 210.073 768.791 210.635 769.538 211.009C769.985 211.233 770.497 211.346 771.073 211.349C771.655 211.355 772.222 211.2 772.774 210.885C773.33 210.573 773.792 210.051 774.159 209.32Z" fill="#828282"/>
<path d="M790.259 224.472C789.312 223.931 788.612 223.214 788.161 222.321C787.712 221.423 787.533 220.418 787.625 219.306C787.72 218.189 788.112 217.029 788.8 215.825C789.482 214.631 790.278 213.712 791.189 213.068C792.101 212.424 793.058 212.071 794.061 212.009C795.065 211.948 796.045 212.191 797.002 212.738C797.742 213.16 798.257 213.618 798.545 214.11C798.841 214.599 799.014 215.064 799.063 215.505C799.12 215.943 799.156 216.298 799.172 216.568L799.32 216.653L802.516 211.058L804.263 212.056L795.604 227.212L793.917 226.248L794.915 224.501L794.708 224.383C794.461 224.517 794.129 224.674 793.712 224.855C793.297 225.03 792.8 225.116 792.22 225.112C791.643 225.102 790.989 224.889 790.259 224.472ZM791.392 223.039C792.093 223.439 792.789 223.595 793.481 223.506C794.176 223.412 794.835 223.111 795.459 222.604C796.085 222.091 796.644 221.406 797.134 220.547C797.619 219.699 797.92 218.886 798.037 218.109C798.157 217.326 798.076 216.62 797.796 215.988C797.518 215.352 797.024 214.831 796.313 214.425C795.573 214.002 794.848 213.84 794.138 213.938C793.435 214.034 792.776 214.334 792.16 214.84C791.552 215.343 791.019 215.994 790.563 216.793C790.101 217.602 789.804 218.408 789.673 219.21C789.55 220.01 789.621 220.744 789.887 221.413C790.16 222.08 790.662 222.622 791.392 223.039Z" fill="#828282"/>
<path d="M808.341 235.534C807.281 234.85 806.518 234.025 806.052 233.061C805.594 232.095 805.43 231.056 805.561 229.943C805.699 228.828 806.132 227.708 806.86 226.582C807.588 225.455 808.434 224.595 809.4 224.001C810.373 223.406 811.385 223.106 812.437 223.102C813.496 223.097 814.521 223.414 815.514 224.056C816.087 224.426 816.591 224.887 817.026 225.438C817.461 225.99 817.768 226.629 817.949 227.354C818.133 228.075 818.134 228.874 817.953 229.751C817.771 230.629 817.349 231.58 816.686 232.606L816.224 233.322L807.748 227.845L808.692 226.385L815.449 230.752C815.85 230.131 816.084 229.497 816.15 228.85C816.221 228.206 816.121 227.597 815.85 227.023C815.583 226.451 815.144 225.968 814.533 225.573C813.861 225.139 813.17 224.929 812.463 224.946C811.763 224.961 811.111 225.148 810.507 225.508C809.902 225.868 809.404 226.351 809.012 226.957L808.383 227.931C807.846 228.761 807.535 229.558 807.448 230.32C807.369 231.081 807.49 231.778 807.811 232.412C808.135 233.041 808.639 233.576 809.321 234.017C809.765 234.303 810.206 234.5 810.644 234.608C811.09 234.713 811.526 234.724 811.952 234.641C812.381 234.553 812.79 234.364 813.18 234.075L814.516 235.588C813.987 236.03 813.383 236.33 812.706 236.488C812.032 236.641 811.322 236.642 810.574 236.49C809.829 236.334 809.085 236.015 808.341 235.534Z" fill="#828282"/>
<path d="M828.902 239.662L824.273 246.033L822.646 244.851L830.34 234.26L831.912 235.402L830.71 237.057L830.848 237.157C831.487 236.8 832.178 236.642 832.921 236.683C833.667 236.719 834.44 237.028 835.239 237.609C835.956 238.13 836.477 238.733 836.801 239.418C837.129 240.098 837.226 240.843 837.094 241.654C836.965 242.459 836.574 243.312 835.919 244.213L831.03 250.943L829.403 249.76L834.212 243.141C834.816 242.309 835.071 241.504 834.976 240.726C834.885 239.943 834.462 239.278 833.708 238.73C833.189 238.353 832.643 238.128 832.07 238.056C831.502 237.987 830.944 238.084 830.395 238.346C829.847 238.608 829.349 239.046 828.902 239.662Z" fill="#828282"/>
<path d="M857.331 255.034L856.256 256.356L850.993 252.075L852.069 250.752L857.331 255.034ZM855.582 249.567L857.142 250.837L849.268 260.516C848.909 260.956 848.704 261.339 848.653 261.663C848.61 261.987 848.659 262.268 848.8 262.508C848.95 262.747 849.14 262.96 849.369 263.147C849.541 263.286 849.689 263.392 849.814 263.464C849.942 263.532 850.044 263.586 850.121 263.627L849.298 265.286C849.16 265.24 848.98 265.159 848.758 265.045C848.533 264.935 848.275 264.761 847.984 264.525C847.543 264.166 847.188 263.72 846.919 263.186C846.655 262.656 846.542 262.084 846.579 261.47C846.622 260.86 846.883 260.26 847.364 259.669L855.582 249.567Z" fill="#828282"/>
<path d="M872.528 293.312L885.342 280.672L886.707 282.055L885.226 283.515L885.394 283.685C885.659 283.631 886.009 283.573 886.444 283.512C886.886 283.45 887.38 283.498 887.925 283.654C888.479 283.811 889.055 284.192 889.653 284.799C890.427 285.584 890.913 286.469 891.111 287.455C891.31 288.44 891.214 289.456 890.825 290.502C890.437 291.548 889.753 292.554 888.774 293.52C887.787 294.493 886.766 295.169 885.711 295.548C884.659 295.922 883.642 296.008 882.659 295.804C881.68 295.597 880.808 295.104 880.042 294.328C879.451 293.729 879.078 293.152 878.921 292.597C878.768 292.037 878.723 291.534 878.786 291.089C878.854 290.639 878.92 290.278 878.987 290.006L878.867 289.884L873.94 294.744L872.528 293.312ZM882.071 286.676C881.367 287.37 880.848 288.086 880.513 288.823C880.183 289.556 880.062 290.27 880.149 290.966C880.241 291.657 880.57 292.29 881.137 292.865C881.727 293.463 882.378 293.807 883.088 293.897C883.807 293.986 884.535 293.866 885.272 293.538C886.018 293.209 886.722 292.718 887.386 292.064C888.041 291.417 888.532 290.734 888.858 290.013C889.192 289.292 889.314 288.577 889.222 287.87C889.139 287.162 888.798 286.505 888.199 285.898C887.625 285.316 886.994 284.972 886.308 284.867C885.626 284.757 884.922 284.861 884.196 285.178C883.475 285.49 882.767 285.989 882.071 286.676Z" fill="#828282"/>
<path d="M891.865 306.6L901.673 297.93L902.96 299.386L901.479 300.695L901.569 300.797C902.212 300.547 902.892 300.523 903.608 300.724C904.324 300.925 904.942 301.319 905.461 301.906C905.559 302.017 905.679 302.157 905.822 302.327C905.964 302.497 906.069 302.628 906.136 302.721L904.603 304.076C904.571 304.013 904.487 303.879 904.35 303.674C904.222 303.468 904.07 303.266 903.893 303.066C903.471 302.589 902.995 302.252 902.464 302.054C901.94 301.857 901.408 301.804 900.867 301.895C900.334 301.987 899.846 302.229 899.404 302.62L893.197 308.107L891.865 306.6Z" fill="#828282"/>
<path d="M907.887 326.066C907.153 325.139 906.73 324.151 906.618 323.102C906.509 322.058 906.696 321.026 907.179 320.007C907.666 318.992 908.439 318.065 909.5 317.226C910.569 316.379 911.656 315.835 912.761 315.591C913.868 315.353 914.918 315.406 915.909 315.752C916.904 316.103 917.768 316.742 918.501 317.669C919.234 318.595 919.655 319.581 919.764 320.625C919.876 321.674 919.687 322.707 919.196 323.726C918.708 324.749 917.93 325.684 916.861 326.53C915.8 327.369 914.718 327.906 913.615 328.141C912.515 328.381 911.468 328.326 910.473 327.975C909.482 327.629 908.62 326.992 907.887 326.066ZM909.304 324.945C909.861 325.649 910.499 326.085 911.22 326.254C911.94 326.423 912.681 326.384 913.442 326.137C914.203 325.89 914.926 325.495 915.613 324.952C916.299 324.409 916.852 323.794 917.272 323.107C917.692 322.42 917.905 321.705 917.91 320.961C917.916 320.217 917.641 319.494 917.084 318.79C916.527 318.086 915.886 317.651 915.161 317.485C914.436 317.32 913.691 317.362 912.925 317.613C912.16 317.863 911.434 318.26 910.748 318.803C910.062 319.346 909.511 319.959 909.095 320.643C908.68 321.326 908.471 322.038 908.47 322.778C908.469 323.518 908.747 324.24 909.304 324.945Z" fill="#828282"/>
<path d="M918.673 348.79C918.113 347.996 917.733 347.242 917.535 346.527C917.331 345.815 917.26 345.152 917.321 344.539C917.38 343.934 917.517 343.388 917.731 342.904L919.574 343.564C919.484 343.85 919.394 344.195 919.304 344.6C919.209 345.007 919.208 345.474 919.301 346C919.393 346.533 919.666 347.122 920.122 347.768C920.731 348.631 921.443 349.196 922.257 349.463C923.071 349.73 923.924 349.548 924.815 348.919L926.988 347.386L926.889 347.247C926.609 347.264 926.247 347.262 925.802 347.243C925.364 347.224 924.889 347.087 924.374 346.831C923.868 346.577 923.369 346.102 922.877 345.405C922.268 344.542 921.925 343.622 921.848 342.647C921.775 341.676 921.988 340.716 922.486 339.767C922.987 338.822 923.795 337.956 924.909 337.169C926.004 336.396 927.094 335.915 928.178 335.727C929.267 335.536 930.277 335.626 931.208 335.999C932.143 336.368 932.928 337.003 933.564 337.903C934.055 338.6 934.329 339.234 934.386 339.806C934.45 340.38 934.413 340.879 934.274 341.304C934.144 341.73 934.028 342.069 933.928 342.32L934.046 342.487L935.744 341.288L936.865 342.876L925.864 350.641C924.945 351.29 924.05 351.609 923.179 351.597C922.308 351.594 921.49 351.336 920.726 350.826C919.96 350.323 919.276 349.644 918.673 348.79ZM924.511 344.586C924.976 345.245 925.52 345.696 926.143 345.938C926.766 346.18 927.444 346.219 928.177 346.056C928.911 345.893 929.672 345.533 930.461 344.976C931.231 344.432 931.83 343.836 932.255 343.188C932.681 342.54 932.9 341.87 932.913 341.179C932.927 340.488 932.697 339.809 932.225 339.14C931.734 338.444 931.148 337.988 930.468 337.773C929.79 337.563 929.073 337.551 928.315 337.738C927.56 337.93 926.821 338.282 926.097 338.793C925.354 339.317 924.779 339.897 924.372 340.532C923.973 341.169 923.773 341.831 923.772 342.52C923.78 343.21 924.026 343.899 924.511 344.586Z" fill="#828282"/>
<path d="M932.759 360.581L943.85 353.627L944.882 355.274L943.207 356.324L943.28 356.44C943.955 356.298 944.63 356.384 945.304 356.7C945.977 357.015 946.523 357.505 946.939 358.169C947.018 358.294 947.113 358.452 947.226 358.643C947.339 358.834 947.421 358.98 947.472 359.082L945.739 360.169C945.717 360.102 945.655 359.956 945.555 359.731C945.461 359.508 945.344 359.283 945.202 359.057C944.864 358.518 944.449 358.107 943.957 357.825C943.473 357.545 942.957 357.406 942.408 357.408C941.867 357.412 941.347 357.571 940.846 357.885L933.827 362.285L932.759 360.581Z" fill="#828282"/>
<path d="M945.557 382.704C944.946 381.6 944.663 380.513 944.707 379.443C944.76 378.375 945.106 377.382 945.746 376.462C946.395 375.545 947.306 374.762 948.479 374.113C949.652 373.463 950.805 373.105 951.936 373.037C953.075 372.972 954.109 373.186 955.038 373.678C955.974 374.173 956.728 374.938 957.3 375.972C957.63 376.569 957.857 377.213 957.98 377.904C958.103 378.596 958.073 379.304 957.889 380.029C957.711 380.751 957.335 381.456 956.761 382.144C956.187 382.832 955.365 383.471 954.296 384.063L953.551 384.475L948.665 375.646L950.186 374.804L954.082 381.844C954.728 381.486 955.233 381.038 955.597 380.499C955.964 379.965 956.163 379.38 956.195 378.746C956.23 378.116 956.071 377.483 955.719 376.847C955.331 376.146 954.822 375.636 954.19 375.316C953.567 374.999 952.903 374.856 952.2 374.888C951.497 374.92 950.83 375.111 950.198 375.46L949.184 376.021C948.319 376.5 947.668 377.055 947.232 377.686C946.803 378.319 946.581 378.991 946.565 379.701C946.553 380.409 946.745 381.118 947.138 381.829C947.394 382.291 947.689 382.673 948.025 382.974C948.368 383.278 948.747 383.493 949.162 383.621C949.582 383.746 950.032 383.773 950.512 383.702L950.976 385.666C950.3 385.807 949.626 385.786 948.955 385.606C948.289 385.423 947.662 385.088 947.074 384.601C946.492 384.112 945.986 383.479 945.557 382.704Z" fill="#828282"/>
<path d="M967.279 402.267L966.032 400.863C966.253 400.63 966.443 400.351 966.603 400.028C966.769 399.708 966.856 399.338 966.861 398.919C966.866 398.499 966.742 398.026 966.487 397.499C966.138 396.778 965.681 396.258 965.115 395.938C964.558 395.621 964.026 395.585 963.52 395.83C963.07 396.048 962.793 396.383 962.691 396.837C962.589 397.29 962.619 397.907 962.781 398.687L963.198 400.644C963.453 401.821 963.441 402.795 963.165 403.567C962.893 404.336 962.345 404.92 961.522 405.318C960.847 405.645 960.149 405.743 959.429 405.611C958.712 405.485 958.032 405.151 957.391 404.609C956.75 404.067 956.208 403.339 955.765 402.423C955.184 401.221 954.963 400.1 955.104 399.06C955.244 398.02 955.765 397.153 956.666 396.458L957.927 397.968C957.372 398.439 957.046 398.979 956.949 399.587C956.855 400.201 956.987 400.879 957.346 401.62C957.755 402.464 958.258 403.048 958.856 403.37C959.462 403.696 960.018 403.736 960.524 403.491C960.933 403.293 961.206 402.984 961.344 402.564C961.487 402.141 961.483 401.6 961.334 400.94L960.844 398.753C960.578 397.55 960.59 396.566 960.882 395.8C961.182 395.036 961.738 394.457 962.551 394.064C963.216 393.742 963.895 393.644 964.587 393.77C965.282 393.901 965.932 394.221 966.538 394.729C967.146 395.243 967.651 395.914 968.052 396.742C968.616 397.908 968.803 398.947 968.614 399.86C968.426 400.777 967.982 401.58 967.279 402.267Z" fill="#828282"/>
<path d="M976.55 423.482L975.381 422.012C975.615 421.791 975.821 421.524 975.997 421.21C976.181 420.899 976.287 420.534 976.316 420.116C976.344 419.697 976.245 419.218 976.019 418.678C975.71 417.939 975.282 417.394 974.735 417.044C974.196 416.697 973.667 416.632 973.148 416.849C972.687 417.042 972.393 417.362 972.266 417.809C972.139 418.257 972.135 418.874 972.255 419.661L972.564 421.638C972.754 422.828 972.689 423.8 972.371 424.555C972.058 425.308 971.479 425.861 970.635 426.214C969.943 426.504 969.241 426.563 968.53 426.393C967.82 426.228 967.16 425.857 966.549 425.281C965.939 424.705 965.438 423.947 965.045 423.009C964.53 421.777 964.371 420.646 964.568 419.615C964.765 418.584 965.332 417.747 966.27 417.102L967.447 418.679C966.867 419.119 966.512 419.64 966.382 420.242C966.254 420.85 966.35 421.534 966.667 422.294C967.029 423.159 967.5 423.769 968.079 424.124C968.666 424.482 969.219 424.552 969.738 424.335C970.158 424.16 970.448 423.866 970.608 423.454C970.773 423.04 970.8 422.499 970.687 421.832L970.317 419.622C970.116 418.406 970.183 417.424 970.516 416.675C970.857 415.929 971.444 415.381 972.278 415.033C972.959 414.748 973.642 414.687 974.326 414.85C975.013 415.019 975.644 415.374 976.222 415.915C976.801 416.461 977.268 417.158 977.623 418.007C978.123 419.203 978.253 420.25 978.014 421.151C977.777 422.057 977.289 422.834 976.55 423.482Z" fill="#828282"/>
<path d="M977.001 446.863L976.088 447.042C975.446 447.168 974.743 447.261 973.98 447.321C973.22 447.386 972.496 447.429 971.81 447.45C971.124 447.471 970.576 447.482 970.167 447.483L969.653 446.037C970.02 445.985 970.505 445.915 971.107 445.828C971.709 445.74 972.378 445.629 973.114 445.494C973.847 445.367 974.587 445.212 975.337 445.03L976.271 444.807L977.001 446.863Z" fill="#828282"/>
<path d="M984.811 481.315L997.551 478.303L997.998 480.194L996.007 480.665L996.047 480.831C996.789 480.935 997.419 481.239 997.935 481.741C998.456 482.243 998.815 482.908 999.011 483.738C999.21 484.578 999.184 485.323 998.935 485.971C998.692 486.624 998.268 487.189 997.663 487.665L997.694 487.797C998.429 487.968 999.067 488.334 999.609 488.895C1000.16 489.454 1000.54 490.19 1000.75 491.103C1001.02 492.242 1000.89 493.258 1000.34 494.151C999.807 495.043 998.79 495.666 997.291 496.02L988.765 498.036L988.302 496.079L996.828 494.063C997.768 493.84 998.379 493.424 998.661 492.815C998.944 492.205 999.002 491.552 998.837 490.855C998.626 489.959 998.191 489.329 997.532 488.965C996.88 488.6 996.141 488.515 995.317 488.71L987.023 490.671L986.553 488.68L995.278 486.617C996.002 486.446 996.53 486.073 996.861 485.498C997.198 484.922 997.279 484.264 997.104 483.523C996.983 483.014 996.735 482.571 996.36 482.193C995.986 481.82 995.526 481.555 994.981 481.398C994.443 481.245 993.861 481.242 993.236 481.39L985.274 483.273L984.811 481.315Z" fill="#828282"/>
<path d="M990.766 510.826C990.619 510.01 990.64 509.241 990.828 508.52C991.022 507.799 991.377 507.189 991.894 506.693C992.417 506.195 993.098 505.87 993.937 505.72C994.675 505.587 995.299 505.625 995.81 505.834C996.326 506.042 996.76 506.365 997.11 506.804C997.46 507.244 997.752 507.745 997.986 508.31C998.227 508.878 998.44 509.455 998.625 510.039C998.867 510.804 999.056 511.425 999.194 511.903C999.338 512.385 999.494 512.726 999.663 512.927C999.833 513.133 1000.08 513.208 1000.4 513.15L1000.46 513.138C1001.29 512.99 1001.89 512.648 1002.27 512.113C1002.65 511.583 1002.76 510.862 1002.59 509.951C1002.42 509.006 1002.08 508.302 1001.57 507.839C1001.06 507.376 1000.55 507.078 1000.04 506.944L1000.38 504.945C1001.22 505.14 1001.91 505.478 1002.45 505.959C1002.99 506.445 1003.41 507.004 1003.7 507.639C1004 508.278 1004.21 508.922 1004.33 509.57C1004.4 509.984 1004.43 510.469 1004.43 511.024C1004.43 511.583 1004.33 512.142 1004.12 512.699C1003.91 513.262 1003.53 513.766 1002.98 514.211C1002.43 514.656 1001.64 514.971 1000.62 515.154L992.128 516.678L991.772 514.698L993.517 514.385L993.499 514.284C993.196 514.2 992.856 514.03 992.481 513.774C992.106 513.518 991.76 513.15 991.443 512.67C991.126 512.19 990.9 511.576 990.766 510.826ZM992.599 510.809C992.739 511.592 993.011 512.224 993.415 512.706C993.82 513.193 994.29 513.53 994.826 513.717C995.363 513.909 995.9 513.957 996.437 513.861L998.249 513.536C998.133 513.47 998.007 513.302 997.872 513.032C997.744 512.766 997.616 512.454 997.488 512.096C997.367 511.743 997.253 511.397 997.146 511.058C997.045 510.724 996.962 510.453 996.896 510.246C996.737 509.743 996.541 509.282 996.31 508.861C996.085 508.446 995.8 508.127 995.455 507.907C995.116 507.69 994.694 507.627 994.191 507.718C993.503 507.841 993.029 508.189 992.768 508.761C992.513 509.338 992.457 510.021 992.599 510.809Z" fill="#828282"/>
<path d="M1001.64 527.695L993.827 528.66L993.58 526.664L1006.57 525.059L1006.81 526.987L1004.78 527.238L1004.8 527.407C1005.5 527.63 1006.09 528.027 1006.56 528.598C1007.05 529.168 1007.35 529.944 1007.47 530.925C1007.58 531.805 1007.49 532.597 1007.21 533.301C1006.94 534.005 1006.46 534.585 1005.78 535.041C1005.1 535.497 1004.21 535.793 1003.11 535.93L994.851 536.95L994.604 534.953L1002.72 533.95C1003.74 533.824 1004.51 533.461 1005.01 532.86C1005.52 532.259 1005.72 531.496 1005.6 530.571C1005.53 529.934 1005.32 529.382 1004.98 528.914C1004.64 528.452 1004.19 528.11 1003.62 527.888C1003.06 527.666 1002.4 527.601 1001.64 527.695Z" fill="#828282"/>
<path d="M996.157 555.645C996.1 554.817 996.205 554.055 996.47 553.359C996.742 552.663 997.161 552.096 997.729 551.659C998.303 551.221 999.015 550.973 999.866 550.915C1000.61 550.863 1001.23 550.969 1001.72 551.232C1002.21 551.495 1002.6 551.864 1002.9 552.339C1003.2 552.814 1003.44 553.344 1003.61 553.93C1003.79 554.522 1003.93 555.118 1004.06 555.719C1004.21 556.506 1004.33 557.144 1004.42 557.634C1004.51 558.129 1004.63 558.485 1004.77 558.703C1004.92 558.927 1005.15 559.027 1005.48 559.005L1005.54 559.001C1006.38 558.943 1007.02 558.669 1007.45 558.178C1007.89 557.693 1008.07 556.988 1008.01 556.064C1007.94 555.106 1007.68 554.369 1007.23 553.854C1006.77 553.338 1006.29 552.986 1005.8 552.798L1006.35 550.847C1007.17 551.133 1007.82 551.544 1008.3 552.08C1008.79 552.622 1009.14 553.225 1009.36 553.887C1009.59 554.555 1009.73 555.218 1009.77 555.875C1009.8 556.295 1009.78 556.78 1009.72 557.331C1009.66 557.888 1009.49 558.431 1009.22 558.962C1008.95 559.499 1008.52 559.959 1007.93 560.341C1007.33 560.724 1006.51 560.95 1005.48 561.021L996.872 561.61L996.735 559.603L998.504 559.482L998.497 559.38C998.204 559.263 997.885 559.057 997.541 558.762C997.196 558.467 996.892 558.063 996.629 557.552C996.366 557.04 996.209 556.404 996.157 555.645ZM997.98 555.827C998.035 556.621 998.236 557.279 998.585 557.802C998.935 558.331 999.366 558.717 999.878 558.961C1000.39 559.211 1000.92 559.317 1001.46 559.28L1003.3 559.154C1003.19 559.076 1003.09 558.895 1002.98 558.612C1002.88 558.334 1002.79 558.01 1002.7 557.64C1002.62 557.276 1002.54 556.919 1002.47 556.571C1002.41 556.228 1002.36 555.95 1002.31 555.736C1002.21 555.219 1002.07 554.739 1001.88 554.296C1001.7 553.859 1001.46 553.511 1001.14 553.254C1000.82 553.002 1000.41 552.893 999.901 552.928C999.204 552.976 998.694 553.27 998.372 553.81C998.056 554.356 997.926 555.028 997.98 555.827Z" fill="#828282"/>
<path d="M992.147 579.156C992.134 578.184 992.247 577.347 992.488 576.645C992.722 575.943 993.038 575.356 993.435 574.885C993.827 574.419 994.248 574.047 994.699 573.768L995.845 575.355C995.609 575.54 995.34 575.774 995.037 576.056C994.728 576.339 994.463 576.723 994.243 577.209C994.016 577.701 993.909 578.342 993.919 579.132C993.934 580.188 994.201 581.057 994.722 581.737C995.243 582.418 996.049 582.751 997.139 582.736L999.798 582.699L999.796 582.529C999.555 582.384 999.257 582.178 998.901 581.91C998.551 581.648 998.236 581.266 997.956 580.764C997.682 580.268 997.54 579.594 997.528 578.741C997.514 577.685 997.751 576.732 998.239 575.885C998.728 575.043 999.446 574.371 1000.39 573.869C1001.34 573.373 1002.5 573.116 1003.86 573.098C1005.2 573.079 1006.37 573.299 1007.37 573.757C1008.38 574.215 1009.16 574.861 1009.72 575.694C1010.28 576.527 1010.57 577.495 1010.58 578.597C1010.6 579.449 1010.46 580.127 1010.19 580.631C1009.91 581.141 1009.6 581.531 1009.25 581.803C1008.9 582.081 1008.61 582.295 1008.39 582.446L1008.39 582.65L1010.47 582.622L1010.5 584.565L997.031 584.749C995.906 584.764 994.987 584.521 994.276 584.019C993.559 583.523 993.03 582.849 992.689 581.995C992.342 581.148 992.161 580.201 992.147 579.156ZM999.338 578.989C999.349 579.796 999.543 580.475 999.92 581.027C1000.3 581.579 1000.83 581.995 1001.53 582.275C1002.23 582.555 1003.06 582.689 1004.03 582.676C1004.97 582.663 1005.8 582.509 1006.52 582.215C1007.23 581.922 1007.79 581.493 1008.2 580.931C1008.6 580.369 1008.79 579.678 1008.78 578.86C1008.77 578.008 1008.54 577.301 1008.1 576.739C1007.66 576.182 1007.08 575.767 1006.35 575.493C1005.62 575.224 1004.81 575.096 1003.92 575.108C1003.01 575.121 1002.21 575.274 1001.52 575.567C1000.83 575.866 1000.29 576.3 999.898 576.868C999.513 577.441 999.327 578.149 999.338 578.989Z" fill="#828282"/>
<path d="M996.703 599.801C996.754 598.541 997.077 597.465 997.671 596.574C998.27 595.688 999.082 595.019 1000.11 594.567C1001.14 594.12 1002.32 593.924 1003.66 593.979C1005 594.034 1006.17 594.326 1007.18 594.856C1008.18 595.393 1008.96 596.112 1009.49 597.016C1010.04 597.925 1010.28 598.97 1010.23 600.151C1010.21 600.832 1010.06 601.5 1009.81 602.155C1009.56 602.81 1009.16 603.4 1008.63 603.924C1008.1 604.448 1007.41 604.855 1006.57 605.144C1005.72 605.434 1004.68 605.553 1003.46 605.503L1002.61 605.468L1003.03 595.386L1004.76 595.457L1004.43 603.496C1005.17 603.526 1005.84 603.405 1006.43 603.134C1007.02 602.868 1007.49 602.472 1007.85 601.947C1008.21 601.427 1008.4 600.804 1008.43 600.077C1008.46 599.277 1008.29 598.576 1007.92 597.975C1007.55 597.38 1007.06 596.913 1006.44 596.575C1005.82 596.237 1005.15 596.053 1004.43 596.023L1003.27 595.976C1002.29 595.936 1001.44 596.071 1000.74 596.384C1000.05 596.702 999.506 597.161 999.124 597.759C998.746 598.358 998.541 599.063 998.508 599.875C998.486 600.403 998.541 600.883 998.671 601.315C998.806 601.752 999.018 602.134 999.306 602.458C999.6 602.783 999.97 603.04 1000.42 603.229L999.793 605.148C999.143 604.917 998.578 604.549 998.098 604.046C997.624 603.544 997.262 602.932 997.013 602.211C996.77 601.49 996.666 600.687 996.703 599.801Z" fill="#828282"/>
<path d="M992.355 644.737C992.544 643.489 992.982 642.455 993.67 641.634C994.362 640.82 995.242 640.243 996.311 639.905C997.384 639.573 998.583 639.508 999.909 639.708C1001.23 639.909 1002.37 640.328 1003.3 640.964C1004.25 641.606 1004.94 642.406 1005.37 643.363C1005.81 644.326 1005.94 645.392 1005.77 646.56C1005.67 647.234 1005.45 647.883 1005.13 648.506C1004.8 649.13 1004.35 649.673 1003.76 650.135C1003.18 650.599 1002.45 650.928 1001.58 651.124C1000.7 651.319 999.662 651.325 998.454 651.142L997.611 651.015L999.122 641.037L1000.84 641.298L999.636 649.252C1000.37 649.363 1001.04 649.316 1001.66 649.11C1002.27 648.91 1002.79 648.569 1003.2 648.085C1003.61 647.607 1003.87 647.009 1003.98 646.29C1004.1 645.498 1004.01 644.783 1003.7 644.144C1003.4 643.513 1002.96 642.995 1002.39 642.592C1001.81 642.188 1001.16 641.933 1000.45 641.825L999.305 641.651C998.327 641.503 997.473 641.546 996.742 641.78C996.016 642.021 995.43 642.418 994.984 642.971C994.544 643.525 994.263 644.204 994.142 645.007C994.063 645.53 994.064 646.012 994.147 646.456C994.234 646.906 994.403 647.308 994.654 647.662C994.91 648.017 995.25 648.313 995.674 648.549L994.844 650.389C994.223 650.088 993.701 649.661 993.279 649.109C992.863 648.557 992.57 647.91 992.401 647.166C992.238 646.423 992.223 645.613 992.355 644.737Z" fill="#828282"/>
<path d="M997.04 665.178L989.33 663.576L989.739 661.607L1002.56 664.27L1002.16 666.173L1000.16 665.756L1000.12 665.923C1000.71 666.359 1001.14 666.924 1001.41 667.618C1001.68 668.313 1001.72 669.145 1001.52 670.113C1001.34 670.98 1001 671.703 1000.51 672.28C1000.02 672.858 999.384 673.253 998.591 673.465C997.804 673.679 996.865 673.672 995.775 673.446L987.63 671.754L988.04 669.784L996.05 671.449C997.057 671.658 997.896 671.56 998.566 671.153C999.242 670.748 999.675 670.09 999.865 669.177C999.996 668.549 999.976 667.959 999.806 667.407C999.635 666.861 999.318 666.391 998.854 665.999C998.39 665.607 997.785 665.333 997.04 665.178Z" fill="#828282"/>
<path d="M984.159 686.13L996.811 689.49L996.313 691.368L994.402 690.86L994.367 690.992C994.931 691.389 995.329 691.941 995.558 692.649C995.788 693.357 995.802 694.089 995.601 694.847C995.563 694.99 995.512 695.168 995.45 695.38C995.388 695.593 995.337 695.753 995.296 695.86L993.319 695.335C993.353 695.273 993.418 695.129 993.514 694.901C993.614 694.681 993.698 694.442 993.766 694.184C993.929 693.569 993.946 692.985 993.816 692.433C993.691 691.889 993.44 691.416 993.064 691.017C992.692 690.624 992.22 690.352 991.649 690.2L983.643 688.074L984.159 686.13Z" fill="#828282"/>
<path d="M976.833 710.254C977.199 709.13 977.786 708.231 978.597 707.556C979.406 706.887 980.369 706.471 981.485 706.308C982.6 706.15 983.8 706.281 985.086 706.698C986.383 707.12 987.439 707.723 988.253 708.507C989.066 709.297 989.603 710.2 989.864 711.217C990.123 712.239 990.07 713.312 989.705 714.436C989.34 715.56 988.753 716.457 987.944 717.126C987.133 717.801 986.168 718.216 985.048 718.372C983.926 718.533 982.717 718.403 981.42 717.981C980.134 717.564 979.087 716.961 978.28 716.172C977.471 715.39 976.936 714.487 976.677 713.465C976.416 712.448 976.468 711.378 976.833 710.254ZM978.552 710.812C978.274 711.666 978.265 712.44 978.524 713.133C978.782 713.827 979.225 714.422 979.852 714.918C980.48 715.415 981.209 715.798 982.042 716.068C982.874 716.339 983.692 716.458 984.497 716.427C985.302 716.396 986.015 716.177 986.637 715.769C987.259 715.362 987.709 714.732 987.987 713.878C988.264 713.024 988.271 712.25 988.007 711.555C987.743 710.859 987.294 710.263 986.662 709.764C986.029 709.266 985.297 708.882 984.464 708.611C983.632 708.341 982.817 708.222 982.017 708.255C981.218 708.288 980.51 708.509 979.893 708.918C979.276 709.327 978.829 709.959 978.552 710.812Z" fill="#828282"/>
<path d="M985.444 738.86L969.163 732.568L969.888 730.691L986.169 736.984L985.444 738.86Z" fill="#828282"/>
<path d="M976.307 760.565L960.394 753.393L961.221 751.559L977.134 758.731L976.307 760.565Z" fill="#828282"/>
<path d="M953.811 767.321L965.434 773.344L964.54 775.069L962.724 774.128L962.646 774.279C963.141 774.843 963.42 775.483 963.483 776.201C963.552 776.921 963.39 777.66 962.998 778.416C962.6 779.183 962.096 779.731 961.484 780.06C960.874 780.397 960.184 780.549 959.415 780.515L959.352 780.636C959.798 781.244 960.043 781.938 960.088 782.716C960.138 783.497 959.947 784.304 959.516 785.136C958.977 786.175 958.211 786.857 957.218 787.18C956.23 787.507 955.052 787.316 953.685 786.607L945.906 782.576L946.832 780.791L954.611 784.821C955.468 785.266 956.203 785.349 956.814 785.07C957.426 784.792 957.896 784.335 958.225 783.699C958.649 782.882 958.73 782.121 958.468 781.416C958.211 780.713 957.707 780.167 956.955 779.778L949.388 775.857L950.329 774.041L958.29 778.165C958.951 778.508 959.594 778.569 960.22 778.35C960.851 778.133 961.341 777.686 961.691 777.01C961.932 776.546 962.033 776.048 961.995 775.516C961.954 774.99 961.779 774.489 961.468 774.014C961.159 773.547 960.72 773.166 960.15 772.871L952.886 769.107L953.811 767.321Z" fill="#828282"/>
<path d="M939.613 792.746C940.254 791.659 941.046 790.863 941.991 790.358C942.937 789.861 943.969 789.654 945.086 789.739C946.205 789.832 947.343 790.219 948.498 790.9C949.653 791.581 950.547 792.391 951.18 793.332C951.815 794.28 952.156 795.279 952.203 796.329C952.252 797.387 951.976 798.425 951.376 799.443C951.03 800.03 950.59 800.553 950.057 801.01C949.523 801.467 948.898 801.801 948.18 802.011C947.467 802.224 946.669 802.258 945.785 802.113C944.901 801.968 943.933 801.585 942.881 800.964L942.147 800.532L947.271 791.839L948.769 792.722L944.683 799.653C945.319 800.028 945.962 800.235 946.612 800.275C947.258 800.32 947.863 800.195 948.425 799.9C948.986 799.61 949.45 799.152 949.82 798.525C950.226 797.835 950.407 797.137 950.362 796.431C950.318 795.733 950.104 795.089 949.72 794.499C949.335 793.91 948.832 793.432 948.211 793.065L947.212 792.477C946.36 791.975 945.552 791.696 944.786 791.64C944.023 791.593 943.331 791.742 942.711 792.089C942.096 792.439 941.582 792.963 941.17 793.663C940.901 794.119 940.723 794.567 940.634 795.009C940.546 795.459 940.553 795.895 940.654 796.317C940.759 796.742 940.965 797.144 941.27 797.521L939.813 798.918C939.349 798.407 939.024 797.817 938.839 797.147C938.658 796.48 938.629 795.77 938.749 795.017C938.875 794.266 939.163 793.509 939.613 792.746Z" fill="#828282"/>
<path d="M936.331 813.459L929.776 809.095L930.89 807.421L941.787 814.675L940.71 816.293L939.008 815.159L938.913 815.301C939.297 815.925 939.483 816.609 939.473 817.352C939.467 818.099 939.19 818.884 938.642 819.707C938.151 820.445 937.57 820.99 936.899 821.342C936.232 821.697 935.492 821.825 934.677 821.726C933.867 821.631 932.998 821.274 932.071 820.657L925.147 816.048L926.262 814.373L933.072 818.907C933.928 819.477 934.743 819.699 935.517 819.572C936.295 819.449 936.943 818.999 937.459 818.224C937.815 817.689 938.017 817.134 938.066 816.559C938.111 815.989 937.992 815.435 937.707 814.898C937.423 814.36 936.965 813.881 936.331 813.459Z" fill="#828282"/>
<path d="M922.137 842.495L920.772 841.474L924.834 836.041L926.199 837.061L922.137 842.495ZM927.527 840.523L926.323 842.134L916.329 834.663C915.874 834.322 915.484 834.133 915.158 834.095C914.833 834.065 914.553 834.126 914.319 834.277C914.086 834.436 913.882 834.635 913.705 834.871C913.572 835.049 913.472 835.201 913.405 835.328C913.343 835.459 913.293 835.564 913.256 835.642L911.564 834.888C911.605 834.748 911.678 834.565 911.783 834.339C911.884 834.109 912.046 833.844 912.271 833.544C912.611 833.089 913.042 832.716 913.565 832.425C914.084 832.139 914.65 832.003 915.265 832.015C915.877 832.033 916.487 832.269 917.097 832.725L927.527 840.523Z" fill="#828282"/>
<path d="M900.313 852.418L899.695 851.723C899.26 851.233 898.823 850.675 898.384 850.049C897.942 849.427 897.537 848.825 897.171 848.245C896.804 847.664 896.517 847.198 896.308 846.845L897.292 845.669C897.524 845.959 897.83 846.341 898.211 846.815C898.592 847.289 899.028 847.809 899.518 848.375C900 848.941 900.509 849.5 901.047 850.054L901.713 850.745L900.313 852.418Z" fill="#828282"/>
<path d="M868.963 881.629C869.562 881.054 870.213 880.646 870.917 880.403C871.625 880.164 872.33 880.122 873.03 880.277C873.734 880.437 874.381 880.824 874.971 881.438C875.49 881.979 875.805 882.52 875.914 883.061C876.028 883.606 875.998 884.146 875.827 884.681C875.655 885.216 875.399 885.737 875.059 886.244C874.719 886.76 874.357 887.257 873.974 887.735C873.471 888.36 873.059 888.862 872.737 889.241C872.416 889.628 872.219 889.947 872.145 890.199C872.068 890.455 872.141 890.699 872.365 890.933L872.412 890.982C872.995 891.589 873.613 891.901 874.268 891.918C874.918 891.94 875.578 891.63 876.246 890.988C876.939 890.323 877.336 889.65 877.439 888.969C877.541 888.288 877.507 887.699 877.336 887.201L879.186 886.371C879.491 887.181 879.592 887.943 879.488 888.656C879.385 889.377 879.151 890.035 878.785 890.63C878.419 891.234 877.998 891.764 877.523 892.22C877.219 892.511 876.836 892.809 876.371 893.113C875.907 893.425 875.384 893.647 874.802 893.78C874.217 893.916 873.587 893.879 872.912 893.669C872.237 893.458 871.54 892.978 870.82 892.227L864.847 886.005L866.298 884.612L867.526 885.891L867.6 885.82C867.501 885.521 867.455 885.144 867.46 884.69C867.465 884.236 867.58 883.744 867.804 883.214C868.028 882.684 868.414 882.156 868.963 881.629ZM869.993 883.145C869.419 883.696 869.044 884.273 868.867 884.876C868.685 885.483 868.666 886.061 868.807 886.61C868.944 887.164 869.202 887.637 869.58 888.031L870.854 889.359C870.845 889.226 870.915 889.029 871.065 888.766C871.215 888.512 871.404 888.233 871.631 887.928C871.858 887.631 872.083 887.345 872.306 887.068C872.528 886.799 872.708 886.58 872.844 886.41C873.174 885.999 873.449 885.58 873.671 885.155C873.893 884.738 874 884.324 873.992 883.914C873.984 883.512 873.803 883.126 873.449 882.757C872.965 882.253 872.413 882.051 871.792 882.151C871.171 882.259 870.571 882.59 869.993 883.145Z" fill="#828282"/>
<path d="M860.949 900.03L855.814 894.06L857.339 892.748L865.875 902.673L864.402 903.941L863.068 902.39L862.939 902.501C863.14 903.205 863.135 903.914 862.924 904.627C862.717 905.345 862.238 906.026 861.489 906.671C860.817 907.248 860.11 907.616 859.369 907.774C858.632 907.936 857.884 907.86 857.126 907.545C856.372 907.234 855.631 906.657 854.905 905.812L849.482 899.506L851.007 898.194L856.341 904.398C857.012 905.177 857.737 905.611 858.516 905.697C859.299 905.789 860.043 905.53 860.75 904.923C861.237 904.504 861.581 904.024 861.783 903.484C861.98 902.946 862.015 902.381 861.886 901.787C861.758 901.193 861.445 900.608 860.949 900.03Z" fill="#828282"/>
<path d="M834.347 911.224C835.212 910.558 836.143 910.19 837.141 910.117C838.143 910.05 839.139 910.273 840.129 910.787C841.123 911.306 842.043 912.114 842.888 913.213C843.726 914.303 844.267 915.393 844.509 916.482C844.752 917.571 844.708 918.59 844.378 919.54C844.047 920.489 843.445 921.3 842.571 921.972C841.896 922.492 841.275 922.79 840.71 922.866C840.144 922.95 839.649 922.93 839.223 922.806C838.797 922.689 838.456 922.586 838.2 922.496L838.065 922.6L841.993 927.707L840.399 928.933L829.757 915.098L831.298 913.913L832.524 915.507L832.713 915.362C832.685 915.083 832.668 914.716 832.662 914.261C832.66 913.811 832.773 913.32 833.001 912.786C833.232 912.257 833.68 911.736 834.347 911.224ZM835.232 912.822C834.593 913.314 834.181 913.896 833.996 914.569C833.814 915.246 833.837 915.97 834.065 916.742C834.296 917.517 834.712 918.297 835.315 919.081C835.911 919.855 836.545 920.446 837.217 920.854C837.892 921.267 838.576 921.465 839.266 921.45C839.961 921.439 840.632 921.184 841.281 920.686C841.956 920.166 842.386 919.56 842.569 918.866C842.752 918.181 842.729 917.457 842.5 916.694C842.271 915.939 841.875 915.196 841.314 914.467C840.746 913.728 840.117 913.143 839.428 912.713C838.738 912.291 838.033 912.073 837.313 912.06C836.593 912.055 835.899 912.309 835.232 912.822Z" fill="#828282"/>
<path d="M797.329 936.359C798.038 935.928 798.762 935.671 799.502 935.586C800.245 935.507 800.942 935.619 801.592 935.922C802.244 936.23 802.792 936.748 803.235 937.476C803.625 938.117 803.814 938.713 803.804 939.265C803.797 939.821 803.651 940.342 803.367 940.827C803.084 941.312 802.721 941.765 802.279 942.187C801.836 942.616 801.375 943.023 800.896 943.407C800.27 943.908 799.759 944.308 799.363 944.609C798.965 944.917 798.703 945.186 798.577 945.416C798.446 945.649 798.465 945.903 798.633 946.18L798.668 946.238C799.105 946.957 799.641 947.395 800.277 947.554C800.907 947.716 801.618 947.557 802.409 947.075C803.23 946.576 803.764 946.006 804.011 945.363C804.259 944.72 804.353 944.138 804.295 943.615L806.28 943.205C806.402 944.062 806.335 944.827 806.08 945.501C805.823 946.183 805.452 946.775 804.965 947.277C804.477 947.786 803.952 948.212 803.389 948.555C803.029 948.773 802.59 948.98 802.071 949.176C801.55 949.38 800.991 949.484 800.395 949.487C799.794 949.494 799.186 949.321 798.573 948.969C797.96 948.617 797.384 947.997 796.843 947.108L792.362 939.739L794.081 938.694L795.002 940.209L795.089 940.156C795.058 939.842 795.094 939.464 795.198 939.022C795.301 938.58 795.52 938.125 795.853 937.656C796.187 937.187 796.679 936.755 797.329 936.359ZM798.006 938.063C797.326 938.476 796.834 938.958 796.531 939.508C796.222 940.062 796.077 940.622 796.096 941.189C796.11 941.759 796.259 942.277 796.543 942.743L797.499 944.316C797.519 944.184 797.63 944.007 797.834 943.783C798.035 943.568 798.28 943.336 798.568 943.087C798.854 942.847 799.135 942.616 799.413 942.394C799.688 942.18 799.911 942.005 800.081 941.868C800.492 941.538 800.852 941.19 801.16 940.823C801.467 940.463 801.661 940.082 801.743 939.68C801.822 939.286 801.729 938.871 801.463 938.434C801.1 937.837 800.605 937.52 799.977 937.482C799.347 937.453 798.69 937.646 798.006 938.063Z" fill="#828282"/>
<path d="M785.516 952.585L781.798 945.643L783.571 944.694L789.751 956.234L788.038 957.151L787.073 955.348L786.922 955.429C786.966 956.159 786.807 956.85 786.447 957.501C786.089 958.157 785.474 958.718 784.603 959.185C783.822 959.603 783.052 959.809 782.294 959.802C781.539 959.801 780.826 959.564 780.154 959.092C779.485 958.626 778.888 957.901 778.362 956.92L774.435 949.587L776.208 948.637L780.071 955.85C780.556 956.756 781.17 957.336 781.912 957.59C782.656 957.849 783.439 957.758 784.261 957.318C784.827 957.015 785.267 956.621 785.581 956.137C785.89 955.656 786.047 955.111 786.05 954.504C786.053 953.896 785.875 953.257 785.516 952.585Z" fill="#828282"/>
<path d="M757.467 957.545C758.219 957.193 758.967 957.016 759.712 957.013C760.459 957.015 761.139 957.202 761.752 957.574C762.367 957.952 762.855 958.526 763.216 959.299C763.534 959.978 763.657 960.591 763.587 961.139C763.519 961.691 763.317 962.193 762.982 962.644C762.648 963.095 762.238 963.506 761.752 963.877C761.265 964.256 760.762 964.61 760.245 964.939C759.567 965.368 759.016 965.711 758.589 965.966C758.161 966.229 757.871 966.468 757.72 966.683C757.564 966.9 757.555 967.155 757.692 967.449L757.721 967.51C758.077 968.272 758.562 968.767 759.176 968.994C759.785 969.224 760.509 969.143 761.348 968.751C762.218 968.344 762.811 967.835 763.128 967.223C763.444 966.611 763.601 966.042 763.6 965.516L765.618 965.326C765.646 966.191 765.497 966.944 765.169 967.586C764.839 968.236 764.405 968.783 763.867 969.229C763.327 969.683 762.758 970.049 762.161 970.328C761.78 970.506 761.321 970.664 760.783 970.802C760.243 970.948 759.676 970.99 759.083 970.929C758.485 970.869 757.9 970.631 757.329 970.215C756.758 969.798 756.252 969.118 755.812 968.176L752.161 960.362L753.984 959.511L754.734 961.117L754.827 961.074C754.83 960.759 754.907 960.387 755.058 959.959C755.209 959.531 755.476 959.102 755.859 958.672C756.241 958.243 756.777 957.867 757.467 957.545ZM757.954 959.311C757.233 959.648 756.692 960.073 756.33 960.587C755.963 961.104 755.758 961.645 755.715 962.211C755.667 962.779 755.758 963.31 755.989 963.804L756.769 965.472C756.803 965.343 756.933 965.179 757.159 964.979C757.383 964.787 757.651 964.583 757.965 964.367C758.275 964.16 758.58 963.961 758.88 963.77C759.178 963.588 759.418 963.438 759.602 963.32C760.046 963.037 760.442 962.73 760.789 962.399C761.133 962.075 761.368 961.718 761.492 961.327C761.614 960.944 761.567 960.521 761.351 960.057C761.055 959.424 760.597 959.055 759.977 958.949C759.354 958.852 758.68 958.972 757.954 959.311Z" fill="#828282"/>
<path d="M743.659 982.83L737.145 966.636L739.011 965.886L745.525 982.079L743.659 982.83Z" fill="#828282"/>
<path d="M716.394 969.103C716.717 968.993 717.014 968.922 717.285 968.89C717.554 968.852 717.745 968.841 717.859 968.856L717.945 970.699C717.442 970.738 717.019 970.834 716.675 970.987C716.331 971.14 716.07 971.406 715.893 971.785C715.708 972.159 715.607 972.701 715.59 973.409L715.564 974.498L724.384 985.398L722.319 986.1L715.539 977.387L715.409 977.431L715.347 988.471L713.281 989.174L713.713 973.183C713.732 972.463 713.845 971.833 714.052 971.294C714.257 970.751 714.556 970.298 714.949 969.936C715.337 969.576 715.818 969.298 716.394 969.103Z" fill="#828282"/>
<path d="M697.838 980.098L698.251 981.576L693.67 992.772L693.707 992.903L700.634 990.963L701.14 992.768L691.718 995.408L691.286 993.865L695.688 982.789L695.652 982.658L688.463 984.672L687.957 982.867L697.838 980.098Z" fill="#828282"/>
<path d="M672.995 986.115C674.227 985.842 675.349 985.878 676.363 986.223C677.372 986.575 678.227 987.188 678.928 988.063C679.624 988.944 680.118 990.039 680.408 991.348C680.699 992.657 680.717 993.864 680.462 994.969C680.202 996.08 679.705 997.011 678.969 997.762C678.23 998.52 677.283 999.027 676.129 999.283C675.464 999.431 674.782 999.466 674.084 999.388C673.385 999.311 672.715 999.081 672.071 998.7C671.429 998.325 670.859 997.765 670.362 997.019C669.865 996.274 669.484 995.305 669.219 994.113L669.034 993.281L678.885 991.093L679.262 992.79L671.408 994.535C671.568 995.256 671.855 995.867 672.269 996.369C672.678 996.872 673.182 997.228 673.782 997.439C674.376 997.65 675.028 997.677 675.738 997.519C676.52 997.346 677.153 997.001 677.638 996.486C678.119 995.978 678.444 995.382 678.612 994.698C678.78 994.015 678.786 993.321 678.63 992.617L678.378 991.485C678.164 990.52 677.816 989.739 677.334 989.141C676.848 988.551 676.267 988.148 675.59 987.931C674.915 987.72 674.18 987.703 673.387 987.879C672.871 987.994 672.421 988.169 672.037 988.406C671.649 988.649 671.335 988.952 671.095 989.314C670.857 989.681 670.703 990.105 670.636 990.586L668.62 990.474C668.677 989.787 668.887 989.146 669.25 988.553C669.614 987.966 670.113 987.46 670.746 987.034C671.38 986.614 672.13 986.308 672.995 986.115Z" fill="#828282"/>
<path d="M631.34 988.464L633.303 1006.36L631.372 1006.57L631.145 1004.5L630.908 1004.53C630.786 1004.77 630.614 1005.08 630.393 1005.46C630.166 1005.84 629.822 1006.2 629.361 1006.53C628.895 1006.87 628.239 1007.08 627.392 1007.18C626.296 1007.3 625.3 1007.13 624.404 1006.67C623.508 1006.22 622.771 1005.51 622.191 1004.56C621.612 1003.6 621.248 1002.44 621.098 1001.08C620.947 999.698 621.05 998.478 621.408 997.415C621.766 996.359 622.33 995.508 623.1 994.863C623.87 994.224 624.797 993.846 625.882 993.727C626.718 993.635 627.402 993.7 627.935 993.921C628.469 994.149 628.891 994.425 629.201 994.751C629.512 995.083 629.753 995.36 629.926 995.581L630.096 995.562L629.341 988.683L631.34 988.464ZM630.624 1000.07C630.516 999.083 630.277 998.231 629.907 997.512C629.537 996.798 629.052 996.26 628.452 995.897C627.853 995.539 627.152 995.405 626.35 995.493C625.514 995.585 624.841 995.881 624.33 996.383C623.814 996.891 623.456 997.537 623.256 998.319C623.051 999.107 622.999 999.964 623.101 1000.89C623.201 1001.81 623.433 1002.61 623.796 1003.32C624.154 1004.03 624.639 1004.57 625.251 1004.93C625.858 1005.31 626.585 1005.45 627.432 1005.35C628.245 1005.26 628.906 1004.98 629.414 1004.51C629.923 1004.04 630.278 1003.43 630.48 1002.66C630.683 1001.9 630.731 1001.04 630.624 1000.07Z" fill="#828282"/>
<path d="M605.942 995.274C607.201 995.206 608.303 995.424 609.247 995.93C610.185 996.442 610.929 997.187 611.477 998.164C612.02 999.147 612.329 1000.31 612.402 1001.65C612.475 1002.99 612.296 1004.18 611.864 1005.23C611.426 1006.28 610.783 1007.12 609.935 1007.74C609.082 1008.37 608.065 1008.71 606.885 1008.78C606.204 1008.81 605.526 1008.74 604.85 1008.55C604.174 1008.36 603.549 1008.02 602.977 1007.54C602.404 1007.06 601.934 1006.42 601.565 1005.6C601.196 1004.79 600.978 1003.77 600.911 1002.55L600.865 1001.7L610.941 1001.15L611.035 1002.88L603.002 1003.32C603.042 1004.06 603.226 1004.71 603.552 1005.27C603.873 1005.83 604.313 1006.27 604.87 1006.57C605.421 1006.88 606.06 1007.01 606.787 1006.97C607.587 1006.93 608.268 1006.69 608.83 1006.26C609.388 1005.84 609.805 1005.31 610.083 1004.66C610.36 1004.01 610.479 1003.33 610.44 1002.61L610.377 1001.45C610.323 1000.46 610.107 999.636 609.729 998.968C609.346 998.306 608.838 997.813 608.205 997.489C607.573 997.171 606.852 997.034 606.041 997.079C605.513 997.107 605.04 997.207 604.623 997.378C604.2 997.555 603.841 997.802 603.545 998.12C603.25 998.443 603.03 998.837 602.884 999.3L600.914 998.861C601.083 998.192 601.394 997.594 601.849 997.069C602.304 996.549 602.879 996.13 603.573 995.814C604.267 995.503 605.057 995.323 605.942 995.274Z" fill="#828282"/>
<path d="M585.795 996.623V1009.71H583.852V1007.74H583.715C583.477 1008.38 583.045 1008.91 582.42 1009.31C581.795 1009.72 581.09 1009.92 580.306 1009.92C580.159 1009.92 579.974 1009.92 579.752 1009.91C579.531 1009.9 579.363 1009.9 579.25 1009.88V1007.84C579.318 1007.86 579.474 1007.88 579.718 1007.92C579.957 1007.96 580.21 1007.98 580.477 1007.98C581.113 1007.98 581.681 1007.84 582.181 1007.58C582.676 1007.31 583.068 1006.95 583.358 1006.48C583.642 1006.02 583.784 1005.5 583.784 1004.91V996.623H585.795Z" fill="#828282"/>
<path d="M554.675 1008.29L554.768 1006.58L561.814 1006.97L561.721 1008.67L554.675 1008.29ZM560.325 995.484L559.512 1010.36C559.471 1011.11 559.261 1011.72 558.882 1012.2C558.503 1012.68 558.025 1013.03 557.45 1013.25C556.875 1013.47 556.275 1013.56 555.651 1013.53C555.157 1013.5 554.757 1013.44 554.449 1013.34C554.141 1013.25 553.913 1013.16 553.763 1013.08L554.437 1011.38C554.537 1011.42 554.677 1011.47 554.856 1011.53C555.029 1011.59 555.26 1011.63 555.549 1011.65C556.213 1011.68 556.702 1011.54 557.015 1011.22C557.323 1010.9 557.494 1010.42 557.529 1009.77L558.317 995.375L560.325 995.484Z" fill="#828282"/>
<path d="M538.637 993.407C539.812 993.536 540.812 993.929 541.637 994.585C542.457 995.241 543.06 996.099 543.447 997.159C543.828 998.218 543.945 999.42 543.797 1000.76C543.649 1002.12 543.273 1003.28 542.671 1004.23C542.063 1005.19 541.288 1005.9 540.345 1006.36C539.397 1006.82 538.336 1006.99 537.161 1006.86C535.986 1006.73 534.989 1006.34 534.169 1005.68C533.344 1005.03 532.741 1004.17 532.36 1003.1C531.974 1002.04 531.856 1000.83 532.004 999.47C532.152 998.126 532.529 996.978 533.137 996.028C533.738 995.076 534.513 994.37 535.461 993.908C536.404 993.445 537.462 993.278 538.637 993.407ZM538.44 995.203C537.547 995.105 536.788 995.254 536.162 995.648C535.536 996.042 535.043 996.597 534.685 997.312C534.326 998.027 534.099 998.82 534.004 999.69C533.908 1000.56 533.958 1001.38 534.152 1002.17C534.346 1002.95 534.706 1003.6 535.231 1004.13C535.757 1004.65 536.466 1004.97 537.358 1005.06C538.25 1005.16 539.01 1005.01 539.637 1004.61C540.264 1004.21 540.757 1003.65 541.116 1002.93C541.475 1002.21 541.702 1001.41 541.798 1000.54C541.893 999.675 541.844 998.852 541.649 998.076C541.454 997.3 541.093 996.652 540.567 996.131C540.041 995.611 539.332 995.301 538.44 995.203Z" fill="#828282"/>
<path d="M518.809 991.03L516.673 1003.95L514.756 1003.63L515.079 1001.68L514.944 1001.66C514.603 1002.26 514.091 1002.7 513.409 1003C512.726 1003.3 511.998 1003.38 511.225 1003.25C511.079 1003.23 510.897 1003.19 510.68 1003.15C510.462 1003.11 510.298 1003.08 510.188 1003.05L510.521 1001.03C510.586 1001.06 510.736 1001.11 510.971 1001.18C511.2 1001.26 511.447 1001.32 511.71 1001.36C512.338 1001.47 512.92 1001.43 513.457 1001.25C513.987 1001.07 514.434 1000.77 514.795 1000.36C515.151 999.953 515.377 999.458 515.473 998.875L516.825 990.702L518.809 991.03Z" fill="#828282"/>
<path d="M500.079 987.649L497.24 1000.43L495.343 1000.01L495.787 998.01L495.621 997.973C495.203 998.596 494.655 999.031 493.978 999.276C493.299 999.527 492.544 999.56 491.712 999.375C490.869 999.188 490.21 998.841 489.735 998.334C489.253 997.831 488.929 997.203 488.765 996.451L488.632 996.421C488.158 997.008 487.551 997.424 486.81 997.666C486.068 997.915 485.239 997.937 484.324 997.734C483.181 997.48 482.326 996.915 481.759 996.038C481.19 995.167 481.072 993.98 481.406 992.476L483.305 983.924L485.269 984.36L483.369 992.913C483.16 993.856 483.268 994.587 483.694 995.106C484.12 995.626 484.683 995.963 485.381 996.118C486.28 996.318 487.036 996.201 487.651 995.767C488.264 995.338 488.662 994.711 488.846 993.884L490.694 985.564L492.69 986.008L490.747 994.761C490.585 995.487 490.691 996.125 491.064 996.673C491.436 997.227 491.993 997.587 492.736 997.752C493.247 997.865 493.754 997.835 494.258 997.662C494.756 997.487 495.195 997.189 495.574 996.767C495.946 996.349 496.202 995.827 496.341 995.2L498.115 987.213L500.079 987.649Z" fill="#828282"/>
<path d="M470.921 980.152C471.72 980.376 472.403 980.73 472.97 981.213C473.535 981.702 473.929 982.287 474.151 982.969C474.371 983.656 474.366 984.41 474.136 985.231C473.934 985.953 473.628 986.499 473.218 986.868C472.806 987.242 472.326 987.491 471.778 987.615C471.23 987.739 470.651 987.783 470.041 987.748C469.425 987.717 468.813 987.657 468.206 987.57C467.412 987.454 466.771 987.354 466.281 987.269C465.784 987.189 465.409 987.181 465.155 987.246C464.895 987.309 464.722 987.496 464.634 987.808L464.616 987.874C464.389 988.684 464.434 989.375 464.752 989.948C465.064 990.519 465.666 990.929 466.557 991.179C467.482 991.438 468.264 991.439 468.902 991.181C469.541 990.924 470.031 990.595 470.373 990.195L472.028 991.367C471.485 992.041 470.88 992.514 470.213 992.788C469.54 993.065 468.854 993.198 468.155 993.185C467.449 993.176 466.779 993.083 466.145 992.905C465.74 992.791 465.289 992.612 464.791 992.366C464.286 992.124 463.829 991.787 463.42 991.353C463.004 990.919 462.716 990.357 462.555 989.669C462.394 988.98 462.454 988.135 462.734 987.134L465.061 978.829L466.998 979.372L466.52 981.079L466.618 981.106C466.826 980.87 467.127 980.638 467.521 980.412C467.914 980.186 468.396 980.035 468.967 979.959C469.537 979.882 470.188 979.947 470.921 980.152ZM470.139 981.809C469.373 981.595 468.685 981.564 468.075 981.718C467.46 981.87 466.952 982.147 466.551 982.548C466.144 982.947 465.867 983.409 465.719 983.935L465.223 985.707C465.332 985.632 465.538 985.592 465.84 985.588C466.135 985.588 466.472 985.609 466.85 985.65C467.221 985.695 467.582 985.743 467.933 985.794C468.278 985.849 468.558 985.892 468.773 985.923C469.295 985.999 469.796 986.024 470.275 985.999C470.747 985.978 471.157 985.86 471.507 985.645C471.849 985.434 472.089 985.082 472.227 984.59C472.416 983.917 472.309 983.338 471.908 982.854C471.5 982.374 470.91 982.026 470.139 981.809Z" fill="#828282"/>
<path d="M450.999 982.594L453.535 975.139L455.439 975.786L451.224 988.18L449.384 987.554L450.043 985.618L449.882 985.563C449.377 986.094 448.764 986.449 448.043 986.63C447.319 986.816 446.489 986.75 445.553 986.431C444.714 986.146 444.038 985.724 443.526 985.166C443.012 984.613 442.698 983.93 442.585 983.117C442.469 982.31 442.591 981.379 442.949 980.325L445.627 972.449L447.532 973.097L444.897 980.843C444.566 981.817 444.561 982.661 444.882 983.376C445.201 984.097 445.802 984.607 446.684 984.907C447.292 985.114 447.88 985.167 448.448 985.066C449.011 984.964 449.516 984.706 449.962 984.294C450.408 983.882 450.754 983.315 450.999 982.594Z" fill="#828282"/>
<path d="M426.803 964.943C427.942 965.401 428.814 966.064 429.42 966.933C430.026 967.801 430.361 968.796 430.424 969.918C430.487 971.039 430.275 972.207 429.787 973.419C429.291 974.652 428.627 975.65 427.794 976.411C426.953 977.175 426.018 977.659 424.986 977.863C423.948 978.07 422.88 977.953 421.784 977.512C420.93 977.168 420.224 976.701 419.666 976.109C419.108 975.517 418.725 974.848 418.516 974.103C418.308 973.358 418.303 972.584 418.503 971.783L420.369 972.533C420.289 973.144 420.408 973.762 420.726 974.386C421.038 975.013 421.604 975.492 422.427 975.823C423.154 976.115 423.868 976.182 424.569 976.023C425.263 975.867 425.9 975.508 426.481 974.946C427.055 974.387 427.527 973.649 427.896 972.732C428.273 971.793 428.454 970.917 428.439 970.102C428.419 969.286 428.214 968.576 427.826 967.972C427.433 967.367 426.867 966.916 426.129 966.619C425.644 966.424 425.17 966.331 424.707 966.341C424.243 966.351 423.811 966.458 423.41 966.664C423.008 966.871 422.661 967.172 422.367 967.568L420.501 966.817C420.894 966.143 421.415 965.602 422.063 965.195C422.703 964.791 423.431 964.557 424.247 964.493C425.055 964.432 425.907 964.582 426.803 964.943Z" fill="#828282"/>
<path d="M408.428 956.866C409.57 957.4 410.438 958.113 411.031 959.004C411.617 959.899 411.921 960.906 411.943 962.027C411.957 963.15 411.681 964.319 411.113 965.534C410.546 966.749 409.824 967.716 408.949 968.436C408.065 969.158 407.103 969.593 406.063 969.74C405.014 969.89 403.955 969.715 402.884 969.214C402.266 968.926 401.704 968.538 401.198 968.05C400.692 967.563 400.3 966.972 400.023 966.278C399.742 965.589 399.632 964.798 399.693 963.904C399.753 963.01 400.041 962.01 400.558 960.903L400.919 960.131L410.061 964.403L409.326 965.978L402.036 962.572C401.724 963.241 401.579 963.901 401.601 964.551C401.618 965.199 401.8 965.789 402.147 966.321C402.489 966.851 402.99 967.27 403.649 967.577C404.375 967.916 405.087 968.03 405.785 967.917C406.476 967.807 407.097 967.533 407.647 967.094C408.197 966.655 408.625 966.108 408.93 965.454L409.421 964.404C409.839 963.509 410.04 962.677 410.022 961.91C409.997 961.146 409.782 960.471 409.377 959.887C408.97 959.308 408.399 958.847 407.663 958.503C407.184 958.279 406.72 958.144 406.272 958.098C405.816 958.054 405.382 958.102 404.972 958.243C404.559 958.388 404.179 958.631 403.832 958.971L402.302 957.654C402.767 957.143 403.323 956.764 403.973 956.515C404.619 956.272 405.323 956.174 406.085 956.223C406.844 956.276 407.625 956.491 408.428 956.866Z" fill="#828282"/>
<path d="M386.37 945.885C386.74 946.083 386.987 946.386 387.111 946.794C387.234 947.202 387.196 947.591 386.998 947.961C386.799 948.332 386.496 948.579 386.088 948.702C385.681 948.826 385.292 948.788 384.921 948.59C384.55 948.391 384.303 948.088 384.18 947.68C384.057 947.273 384.095 946.883 384.293 946.513C384.425 946.267 384.608 946.076 384.843 945.937C385.073 945.796 385.325 945.718 385.597 945.703C385.862 945.69 386.119 945.751 386.37 945.885Z" fill="#828282"/>
<path d="M353.995 926.527L344.125 940.923L335.437 934.966L336.497 933.42L343.442 938.181L346.777 933.317L340.282 928.864L341.343 927.318L347.838 931.771L351.192 926.878L344.134 922.04L345.195 920.493L353.995 926.527Z" fill="#828282"/>
<path d="M336.449 914.158L328.468 924.535L326.928 923.35L328.175 921.729L328.04 921.625C327.398 922.013 326.718 922.174 326 922.11C325.279 922.05 324.581 921.76 323.906 921.241C323.221 920.714 322.771 920.121 322.555 919.46C322.331 918.8 322.304 918.095 322.473 917.344L322.365 917.26C321.687 917.592 320.961 917.711 320.187 917.618C319.41 917.529 318.65 917.198 317.907 916.627C316.979 915.913 316.443 915.039 316.3 914.004C316.154 912.974 316.55 911.849 317.488 910.628L322.83 903.683L324.424 904.909L319.083 911.854C318.494 912.62 318.282 913.328 318.448 913.979C318.614 914.63 318.981 915.174 319.549 915.61C320.278 916.171 321.013 916.385 321.753 916.252C322.49 916.124 323.117 915.724 323.633 915.053L328.829 908.297L330.45 909.544L324.984 916.651C324.53 917.241 324.356 917.864 324.462 918.518C324.564 919.178 324.917 919.739 325.52 920.203C325.935 920.522 326.407 920.71 326.937 920.766C327.463 920.819 327.986 920.735 328.508 920.512C329.023 920.291 329.475 919.926 329.867 919.418L334.855 912.932L336.449 914.158Z" fill="#828282"/>
<path d="M319.545 894.406L307.809 908.054L306.335 906.787L307.691 905.21L307.51 905.054C307.25 905.13 306.906 905.217 306.478 905.313C306.042 905.411 305.546 905.404 304.99 905.292C304.426 905.182 303.82 904.849 303.174 904.293C302.338 903.574 301.781 902.732 301.503 901.766C301.225 900.799 301.237 899.779 301.539 898.705C301.841 897.631 302.44 896.572 303.336 895.53C304.24 894.478 305.203 893.721 306.223 893.258C307.24 892.798 308.247 892.63 309.243 892.752C310.236 892.879 311.146 893.298 311.973 894.009C312.611 894.558 313.03 895.102 313.232 895.643C313.43 896.188 313.516 896.685 313.489 897.134C313.459 897.588 313.422 897.953 313.379 898.231L313.508 898.342L318.02 893.095L319.545 894.406ZM310.577 901.802C311.222 901.052 311.681 900.296 311.954 899.535C312.223 898.777 312.286 898.055 312.141 897.369C311.993 896.687 311.613 896.083 311.002 895.557C310.364 895.009 309.688 894.719 308.972 894.688C308.249 894.658 307.533 894.837 306.825 895.225C306.109 895.613 305.447 896.16 304.839 896.867C304.239 897.565 303.806 898.286 303.54 899.032C303.265 899.778 303.203 900.499 303.352 901.197C303.493 901.896 303.887 902.523 304.533 903.079C305.153 903.612 305.81 903.903 306.503 903.952C307.192 904.005 307.884 903.844 308.581 903.469C309.275 903.098 309.94 902.543 310.577 901.802Z" fill="#828282"/>
<path d="M297.482 880.733C298.334 881.551 298.888 882.472 299.142 883.496C299.391 884.515 299.347 885.563 299.007 886.639C298.663 887.711 298.023 888.735 297.087 889.71C296.143 890.694 295.14 891.382 294.079 891.773C293.014 892.161 291.967 892.25 290.938 892.042C289.905 891.83 288.962 891.315 288.11 890.497C287.257 889.679 286.706 888.76 286.456 887.74C286.202 886.716 286.248 885.667 286.596 884.591C286.94 883.511 287.584 882.479 288.528 881.495C289.464 880.519 290.463 879.84 291.524 879.457C292.581 879.069 293.626 878.981 294.659 879.193C295.688 879.401 296.629 879.914 297.482 880.733ZM296.23 882.036C295.583 881.415 294.89 881.069 294.154 881C293.417 880.931 292.688 881.07 291.968 881.418C291.248 881.767 290.585 882.257 289.979 882.888C289.373 883.519 288.909 884.204 288.586 884.942C288.264 885.68 288.151 886.417 288.246 887.155C288.342 887.892 288.713 888.572 289.361 889.193C290.008 889.815 290.703 890.159 291.443 890.224C292.184 890.289 292.917 890.145 293.641 889.793C294.365 889.441 295.03 888.949 295.636 888.317C296.242 887.686 296.704 887.004 297.022 886.27C297.341 885.536 297.45 884.802 297.351 884.069C297.252 883.336 296.878 882.658 296.23 882.036Z" fill="#828282"/>
<path d="M283.16 866.701L276.315 878.551L274.872 877.007L280.266 868.098L280.173 867.998L270.94 872.796L269.474 871.226L274.889 862.39L274.796 862.291L265.565 867.041L264.122 865.496L276.412 859.476L277.762 860.921L272.366 869.878L272.506 870.027L281.81 865.256L283.16 866.701Z" fill="#828282"/>
<path d="M266.445 847.474C267.254 848.441 267.739 849.454 267.899 850.513C268.051 851.572 267.9 852.613 267.445 853.637C266.983 854.661 266.238 855.603 265.209 856.463C264.181 857.324 263.117 857.895 262.02 858.176C260.914 858.457 259.858 858.444 258.853 858.136C257.839 857.828 256.954 857.221 256.195 856.314C255.758 855.792 255.413 855.202 255.161 854.546C254.909 853.891 254.804 853.19 254.846 852.443C254.884 851.7 255.119 850.937 255.552 850.152C255.985 849.368 256.67 848.584 257.607 847.8L258.26 847.253L264.735 854.993L263.402 856.109L258.239 849.938C257.673 850.412 257.262 850.948 257.007 851.546C256.748 852.141 256.664 852.752 256.753 853.381C256.839 854.006 257.115 854.597 257.581 855.155C258.095 855.77 258.693 856.174 259.373 856.367C260.046 856.56 260.724 856.574 261.408 856.409C262.093 856.244 262.712 855.931 263.265 855.468L264.154 854.724C264.912 854.089 265.446 853.421 265.754 852.718C266.055 852.015 266.146 851.313 266.027 850.613C265.903 849.916 265.581 849.256 265.059 848.633C264.72 848.228 264.357 847.909 263.971 847.677C263.576 847.444 263.163 847.305 262.731 847.258C262.295 847.215 261.848 847.274 261.39 847.435L260.562 845.595C261.199 845.329 261.864 845.221 262.557 845.27C263.246 845.324 263.925 845.533 264.595 845.899C265.26 846.269 265.876 846.794 266.445 847.474Z" fill="#828282"/>
<path d="M254.009 832.293L243.524 840.132L242.361 838.576L243.945 837.392L243.863 837.283C243.201 837.479 242.522 837.448 241.824 837.189C241.127 836.93 240.544 836.487 240.074 835.859C239.986 835.74 239.877 835.591 239.749 835.41C239.621 835.229 239.528 835.09 239.469 834.992L241.107 833.767C241.134 833.832 241.207 833.972 241.326 834.188C241.437 834.403 241.573 834.618 241.733 834.832C242.114 835.341 242.561 835.716 243.074 835.957C243.579 836.196 244.105 836.293 244.652 836.246C245.191 836.198 245.697 835.997 246.17 835.643L252.805 830.683L254.009 832.293Z" fill="#828282"/>
<path d="M232.214 791.08C232.387 791.374 232.517 791.65 232.604 791.909C232.695 792.165 232.745 792.35 232.753 792.464L230.966 792.924C230.826 792.439 230.645 792.044 230.426 791.739C230.206 791.433 229.893 791.232 229.486 791.135C229.081 791.03 228.531 791.042 227.834 791.169L226.763 791.365L217.885 802.219L216.777 800.339L223.928 791.928L223.859 791.811L213.038 793.996L211.93 792.116L227.673 789.285C228.383 789.157 229.022 789.14 229.591 789.233C230.166 789.323 230.67 789.524 231.104 789.835C231.535 790.141 231.905 790.556 232.214 791.08Z" fill="#828282"/>
<path d="M216.707 772.691C217.251 773.741 217.478 774.791 217.389 775.842C217.297 776.887 216.918 777.865 216.25 778.774C215.579 779.678 214.644 780.441 213.443 781.064C212.232 781.691 211.061 782.019 209.931 782.048C208.798 782.072 207.778 781.82 206.871 781.292C205.961 780.759 205.234 779.967 204.69 778.918C204.147 777.869 203.921 776.821 204.012 775.775C204.101 774.724 204.484 773.746 205.159 772.839C205.832 771.927 206.774 771.157 207.985 770.53C209.185 769.908 210.35 769.586 211.478 769.565C212.603 769.538 213.621 769.792 214.531 770.325C215.438 770.853 216.163 771.642 216.707 772.691ZM215.103 773.523C214.69 772.726 214.146 772.176 213.47 771.873C212.795 771.57 212.061 771.467 211.267 771.565C210.473 771.663 209.687 771.913 208.91 772.316C208.133 772.718 207.473 773.217 206.93 773.812C206.388 774.407 206.043 775.069 205.896 775.798C205.749 776.527 205.882 777.29 206.295 778.087C206.708 778.884 207.254 779.432 207.935 779.733C208.615 780.033 209.355 780.133 210.154 780.032C210.953 779.932 211.741 779.68 212.517 779.278C213.294 778.875 213.952 778.378 214.49 777.786C215.027 777.193 215.367 776.534 215.509 775.808C215.651 775.081 215.516 774.32 215.103 773.523Z" fill="#828282"/>
<path d="M200.46 751.833L193.405 755.013L192.578 753.179L204.513 747.8L205.339 749.634L203.319 750.545L203.375 750.669C204.107 750.676 204.819 750.878 205.51 751.277C206.195 751.679 206.741 752.33 207.148 753.232C207.484 753.978 207.619 754.714 207.555 755.441C207.485 756.171 207.193 756.851 206.679 757.481C206.16 758.114 205.393 758.659 204.378 759.117L196.794 762.535L195.968 760.701L203.427 757.339C204.297 756.947 204.882 756.39 205.18 755.67C205.477 754.944 205.453 754.201 205.11 753.44C204.904 752.984 204.579 752.573 204.133 752.206C203.686 751.835 203.148 751.597 202.522 751.493C201.893 751.384 201.206 751.497 200.46 751.833Z" fill="#828282"/>
<path d="M198.848 734.078L186.637 738.797L185.937 736.985L187.781 736.272L187.732 736.145C187.042 736.155 186.396 735.942 185.794 735.505C185.193 735.067 184.751 734.483 184.468 733.751C184.415 733.613 184.351 733.44 184.276 733.231C184.202 733.023 184.149 732.863 184.119 732.753L186.027 732.016C186.035 732.086 186.068 732.24 186.124 732.481C186.173 732.718 186.246 732.961 186.342 733.21C186.571 733.803 186.901 734.285 187.33 734.655C187.752 735.022 188.233 735.257 188.772 735.359C189.303 735.458 189.845 735.401 190.396 735.188L198.123 732.202L198.848 734.078Z" fill="#828282"/>
<path d="M172.88 686.591L173.838 688.207C173.576 688.394 173.336 688.631 173.119 688.918C172.894 689.201 172.739 689.548 172.654 689.958C172.569 690.369 172.602 690.857 172.752 691.422C172.958 692.197 173.307 692.795 173.801 693.216C174.288 693.633 174.804 693.77 175.347 693.626C175.831 693.497 176.166 693.22 176.353 692.794C176.539 692.369 176.627 691.758 176.615 690.961L176.578 688.96C176.552 687.756 176.748 686.802 177.167 686.097C177.58 685.394 178.228 684.925 179.112 684.69C179.837 684.497 180.541 684.534 181.223 684.8C181.903 685.06 182.506 685.517 183.033 686.171C183.559 686.825 183.953 687.643 184.214 688.626C184.556 689.917 184.56 691.059 184.224 692.054C183.889 693.048 183.213 693.801 182.196 694.312L181.245 692.589C181.879 692.232 182.302 691.765 182.512 691.185C182.722 690.601 182.721 689.91 182.509 689.114C182.269 688.208 181.885 687.54 181.359 687.109C180.827 686.674 180.288 686.529 179.745 686.673C179.305 686.79 178.978 687.042 178.763 687.428C178.543 687.816 178.443 688.348 178.464 689.024L178.53 691.264C178.563 692.496 178.363 693.46 177.931 694.157C177.492 694.849 176.836 695.312 175.962 695.543C175.249 695.733 174.564 695.7 173.908 695.445C173.251 695.185 172.674 694.747 172.175 694.133C171.676 693.513 171.308 692.758 171.072 691.869C170.739 690.617 170.753 689.561 171.112 688.701C171.47 687.836 172.06 687.133 172.88 686.591Z" fill="#828282"/>
<path d="M178.429 663.826C178.678 665.028 178.61 666.121 178.223 667.107C177.835 668.093 177.193 668.923 176.294 669.597C175.395 670.271 174.306 670.741 173.027 671.007C171.725 671.278 170.526 671.277 169.431 671.006C168.329 670.73 167.408 670.219 166.667 669.474C165.919 668.724 165.425 667.77 165.185 666.613C164.997 665.712 164.995 664.865 165.179 664.073C165.362 663.28 165.707 662.59 166.211 662.004C166.716 661.417 167.358 660.985 168.136 660.707L168.545 662.677C167.992 662.948 167.544 663.39 167.201 664.001C166.851 664.607 166.766 665.344 166.947 666.212C167.106 666.98 167.446 667.611 167.967 668.107C168.481 668.598 169.133 668.929 169.923 669.102C170.707 669.27 171.583 669.253 172.551 669.052C173.541 668.846 174.371 668.511 175.04 668.047C175.709 667.577 176.187 667.014 176.474 666.356C176.759 665.694 176.821 664.973 176.66 664.194C176.553 663.682 176.368 663.236 176.103 662.856C175.838 662.476 175.509 662.175 175.115 661.956C174.721 661.736 174.278 661.613 173.785 661.588L173.376 659.618C174.156 659.573 174.894 659.706 175.592 660.02C176.283 660.329 176.881 660.805 177.386 661.449C177.885 662.088 178.232 662.881 178.429 663.826Z" fill="#828282"/>
<path d="M167.449 648.816L175.236 647.637L175.537 649.626L158.279 652.239L157.978 650.25L164.315 649.291L164.289 649.122C163.575 648.92 162.975 648.545 162.49 647.998C161.998 647.446 161.675 646.662 161.522 645.645C161.388 644.763 161.448 643.964 161.702 643.247C161.95 642.531 162.408 641.936 163.078 641.461C163.741 640.982 164.628 640.658 165.741 640.489L173.965 639.244L174.266 641.233L166.176 642.458C165.148 642.613 164.394 643 163.913 643.619C163.425 644.233 163.253 645.009 163.395 645.947C163.493 646.599 163.719 647.162 164.073 647.638C164.426 648.107 164.889 648.451 165.462 648.669C166.034 648.881 166.697 648.93 167.449 648.816Z" fill="#828282"/>
<path d="M172.252 621.986C172.365 623.162 172.184 624.221 171.709 625.163C171.234 626.099 170.517 626.864 169.558 627.458C168.598 628.047 167.445 628.406 166.099 628.535C164.742 628.665 163.533 628.533 162.474 628.138C161.413 627.737 160.561 627.122 159.917 626.294C159.271 625.459 158.892 624.454 158.78 623.278C158.667 622.101 158.848 621.045 159.323 620.109C159.798 619.167 160.518 618.402 161.483 617.813C162.448 617.218 163.609 616.856 164.966 616.725C166.313 616.596 167.513 616.732 168.567 617.133C169.621 617.529 170.471 618.144 171.116 618.978C171.76 619.807 172.139 620.809 172.252 621.986ZM170.453 622.158C170.368 621.265 170.068 620.551 169.555 620.018C169.041 619.485 168.398 619.116 167.625 618.911C166.852 618.705 166.03 618.644 165.159 618.728C164.287 618.811 163.489 619.027 162.764 619.377C162.038 619.726 161.471 620.211 161.062 620.833C160.654 621.454 160.493 622.212 160.578 623.105C160.664 623.999 160.966 624.712 161.485 625.244C162.005 625.777 162.654 626.145 163.432 626.35C164.211 626.555 165.036 626.616 165.907 626.533C166.778 626.449 167.574 626.233 168.294 625.884C169.014 625.535 169.575 625.051 169.978 624.43C170.381 623.809 170.539 623.052 170.453 622.158Z" fill="#828282"/>
<path d="M170.711 599.457C170.759 600.638 170.521 601.685 169.995 602.6C169.47 603.508 168.712 604.233 167.722 604.774C166.731 605.31 165.561 605.605 164.21 605.66C162.847 605.716 161.648 605.518 160.611 605.066C159.575 604.608 158.757 603.948 158.159 603.085C157.56 602.217 157.237 601.192 157.188 600.011C157.14 598.831 157.378 597.786 157.904 596.877C158.43 595.963 159.19 595.238 160.186 594.702C161.182 594.161 162.361 593.863 163.724 593.807C165.075 593.751 166.266 593.953 167.297 594.411C168.328 594.863 169.142 595.524 169.741 596.392C170.339 597.254 170.663 598.276 170.711 599.457ZM168.906 599.531C168.869 598.634 168.609 597.905 168.125 597.345C167.642 596.785 167.019 596.381 166.259 596.134C165.498 595.886 164.68 595.781 163.806 595.816C162.932 595.852 162.123 596.025 161.379 596.334C160.636 596.643 160.043 597.097 159.601 597.695C159.159 598.293 158.957 599.04 158.994 599.937C159.03 600.834 159.293 601.563 159.783 602.123C160.272 602.683 160.9 603.086 161.666 603.334C162.433 603.581 163.253 603.687 164.127 603.651C165.001 603.615 165.808 603.442 166.546 603.134C167.284 602.825 167.871 602.371 168.307 601.773C168.743 601.175 168.942 600.428 168.906 599.531Z" fill="#828282"/>
<path d="M152.69 575.63L170.143 575.869L170.116 577.88L152.663 577.642L152.69 575.63Z" fill="#828282"/>
<path d="M172.901 534.328L159.419 536.681L159.679 534.584L169.973 533.004L169.989 532.869L160.385 528.866L160.648 526.734L170.9 525.218L170.917 525.083L161.351 521.05L161.61 518.952L174.113 524.516L173.871 526.479L163.538 528.087L163.513 528.29L173.143 532.366L172.901 534.328Z" fill="#828282"/>
<path d="M176.417 510.453L163.532 508.141L163.887 506.161L176.772 508.473L176.417 510.453ZM161.565 506.749C161.496 507.134 161.305 507.444 160.992 507.676C160.68 507.903 160.339 507.983 159.97 507.917C159.601 507.851 159.31 507.657 159.096 507.336C158.883 507.009 158.812 506.653 158.881 506.267C158.95 505.881 159.141 505.575 159.453 505.348C159.766 505.115 160.107 505.032 160.476 505.098C160.845 505.165 161.136 505.361 161.349 505.688C161.562 506.009 161.634 506.363 161.565 506.749Z" fill="#828282"/>
<path d="M169.735 478.902L171.394 479.294L169.833 485.896L168.174 485.504L169.735 478.902ZM165.577 482.858L166.04 480.901L178.182 483.772C178.735 483.903 179.169 483.92 179.483 483.825C179.794 483.724 180.026 483.557 180.18 483.325C180.33 483.086 180.439 482.822 180.507 482.535C180.558 482.319 180.588 482.14 180.599 481.996C180.604 481.851 180.608 481.736 180.611 481.649L182.464 481.666C182.482 481.811 182.488 482.008 182.481 482.257C182.481 482.508 182.437 482.816 182.351 483.181C182.22 483.734 181.973 484.248 181.61 484.722C181.248 485.191 180.782 485.543 180.213 485.776C179.646 486.004 178.991 486.03 178.25 485.855L165.577 482.858Z" fill="#828282"/>
<path d="M178.522 466.377L186.075 468.605L185.506 470.534L168.764 465.596L169.333 463.666L175.481 465.48L175.529 465.316C174.967 464.831 174.582 464.237 174.375 463.536C174.163 462.828 174.202 461.981 174.493 460.994C174.746 460.139 175.139 459.44 175.672 458.898C176.199 458.355 176.867 458.01 177.674 457.863C178.478 457.709 179.419 457.791 180.498 458.109L188.476 460.463L187.907 462.392L180.06 460.077C179.063 459.783 178.215 459.814 177.517 460.171C176.816 460.521 176.331 461.151 176.062 462.061C175.876 462.694 175.842 463.3 175.961 463.88C176.082 464.455 176.356 464.962 176.783 465.402C177.212 465.836 177.791 466.161 178.522 466.377Z" fill="#828282"/>
<path d="M203.038 421.441C202.617 422.448 201.991 423.23 201.161 423.788C200.325 424.344 199.349 424.644 198.234 424.689C197.114 424.731 195.914 424.485 194.635 423.95C193.367 423.42 192.357 422.742 191.606 421.917C190.855 421.091 190.387 420.185 190.203 419.196C190.019 418.208 190.14 417.205 190.565 416.188C190.894 415.402 191.285 414.835 191.738 414.489C192.187 414.135 192.628 413.907 193.059 413.804C193.487 413.693 193.834 413.614 194.101 413.565L194.167 413.408L188.223 410.922L188.999 409.066L205.102 415.801L204.352 417.594L202.496 416.817L202.404 417.038C202.567 417.266 202.764 417.576 202.994 417.968C203.219 418.358 203.365 418.841 203.432 419.417C203.494 419.991 203.363 420.666 203.038 421.441ZM201.477 420.493C201.788 419.748 201.857 419.038 201.684 418.362C201.506 417.684 201.126 417.067 200.546 416.51C199.961 415.951 199.212 415.481 198.3 415.1C197.398 414.722 196.555 414.524 195.769 414.503C194.978 414.48 194.286 414.646 193.694 415.002C193.096 415.356 192.64 415.91 192.324 416.665C191.995 417.451 191.923 418.191 192.108 418.884C192.289 419.569 192.668 420.187 193.245 420.736C193.819 421.278 194.531 421.727 195.38 422.082C196.24 422.441 197.076 422.637 197.888 422.668C198.697 422.693 199.417 422.532 200.048 422.186C200.676 421.833 201.152 421.269 201.477 420.493Z" fill="#828282"/>
<path d="M212.26 401.268C211.898 402.014 211.43 402.624 210.854 403.096C210.273 403.566 209.627 403.85 208.917 403.949C208.201 404.044 207.46 403.906 206.693 403.535C206.018 403.208 205.535 402.81 205.244 402.342C204.949 401.87 204.788 401.354 204.763 400.793C204.738 400.231 204.797 399.654 204.939 399.06C205.079 398.458 205.245 397.866 205.438 397.285C205.693 396.524 205.905 395.91 206.074 395.443C206.241 394.968 206.315 394.6 206.296 394.338C206.28 394.072 206.126 393.868 205.835 393.727L205.773 393.697C205.016 393.331 204.328 393.253 203.708 393.465C203.091 393.671 202.58 394.191 202.177 395.024C201.759 395.889 201.62 396.658 201.761 397.332C201.901 398.006 202.138 398.547 202.472 398.954L201.026 400.376C200.459 399.722 200.099 399.043 199.948 398.339C199.794 397.627 199.785 396.928 199.921 396.243C200.054 395.55 200.264 394.907 200.551 394.313C200.735 393.935 200.991 393.523 201.321 393.076C201.648 392.622 202.061 392.232 202.56 391.905C203.061 391.573 203.665 391.389 204.371 391.352C205.077 391.315 205.898 391.523 206.834 391.976L214.597 395.733L213.721 397.544L212.125 396.771L212.081 396.864C212.277 397.11 212.452 397.447 212.605 397.874C212.757 398.302 212.821 398.803 212.796 399.378C212.77 399.952 212.591 400.582 212.26 401.268ZM210.767 400.204C211.113 399.488 211.265 398.817 211.221 398.19C211.18 397.557 210.998 397.008 210.674 396.542C210.353 396.071 209.947 395.717 209.456 395.479L207.799 394.677C207.854 394.799 207.856 395.008 207.807 395.306C207.755 395.597 207.675 395.924 207.568 396.289C207.458 396.646 207.347 396.993 207.234 397.33C207.119 397.659 207.027 397.927 206.959 398.134C206.792 398.634 206.679 399.122 206.619 399.598C206.557 400.067 206.6 400.492 206.75 400.874C206.897 401.248 207.201 401.546 207.661 401.769C208.29 402.074 208.879 402.071 209.426 401.762C209.971 401.445 210.418 400.925 210.767 400.204Z" fill="#828282"/>
<path d="M213.044 371.054L214.535 371.879L211.25 377.815L209.759 376.99L213.044 371.054ZM207.972 373.742L208.946 371.982L219.863 378.023C220.36 378.298 220.773 378.432 221.102 378.425C221.428 378.411 221.696 378.313 221.907 378.131C222.116 377.941 222.292 377.717 222.435 377.459C222.542 377.265 222.621 377.1 222.669 376.965C222.713 376.827 222.748 376.716 222.775 376.633L224.554 377.15C224.533 377.294 224.485 377.486 224.412 377.724C224.343 377.965 224.218 378.25 224.036 378.578C223.761 379.075 223.385 379.504 222.907 379.862C222.432 380.216 221.889 380.429 221.278 380.5C220.67 380.566 220.033 380.415 219.367 380.047L207.972 373.742Z" fill="#828282"/>
<path d="M234.242 361.84C233.801 362.542 233.269 363.097 232.645 363.504C232.016 363.908 231.343 364.12 230.627 364.14C229.905 364.157 229.183 363.939 228.461 363.486C227.826 363.088 227.389 362.64 227.151 362.142C226.909 361.641 226.806 361.111 226.842 360.55C226.878 359.989 227 359.421 227.206 358.847C227.41 358.264 227.64 357.694 227.896 357.137C228.232 356.408 228.509 355.821 228.728 355.375C228.946 354.921 229.06 354.563 229.07 354.301C229.083 354.035 228.952 353.815 228.678 353.643L228.62 353.607C227.907 353.16 227.231 353.008 226.592 353.151C225.956 353.288 225.392 353.749 224.9 354.534C224.39 355.348 224.168 356.097 224.235 356.783C224.301 357.468 224.478 358.031 224.764 358.473L223.173 359.728C222.68 359.017 222.396 358.303 222.323 357.586C222.247 356.861 222.315 356.166 222.524 355.499C222.733 354.825 223.012 354.209 223.362 353.65C223.585 353.294 223.885 352.912 224.261 352.504C224.636 352.088 225.089 351.746 225.621 351.475C226.155 351.2 226.776 351.083 227.481 351.123C228.187 351.163 228.981 351.459 229.862 352.012L237.169 356.593L236.101 358.297L234.599 357.356L234.544 357.442C234.713 357.709 234.849 358.063 234.955 358.504C235.06 358.946 235.069 359.451 234.981 360.019C234.892 360.588 234.646 361.195 234.242 361.84ZM232.874 360.62C233.296 359.946 233.52 359.295 233.545 358.667C233.573 358.034 233.452 357.468 233.181 356.97C232.913 356.466 232.548 356.07 232.086 355.78L230.526 354.802C230.567 354.929 230.547 355.137 230.466 355.428C230.382 355.711 230.267 356.028 230.121 356.379C229.973 356.722 229.825 357.055 229.676 357.378C229.525 357.692 229.405 357.949 229.314 358.147C229.094 358.626 228.929 359.099 228.817 359.565C228.704 360.024 228.701 360.451 228.808 360.847C228.914 361.235 229.183 361.565 229.616 361.837C230.208 362.208 230.793 362.27 231.371 362.022C231.947 361.766 232.448 361.299 232.874 360.62Z" fill="#828282"/>
<path d="M241.121 336.017L242.653 337.098L238.249 343.337L236.717 342.256L241.121 336.017Z" fill="#828282"/>
<path d="M260.614 324.71C259.937 325.566 259.123 326.15 258.173 326.463C257.218 326.773 256.198 326.799 255.112 326.541C254.022 326.28 252.933 325.719 251.846 324.859C250.767 324.006 249.978 323.081 249.477 322.083C248.977 321.086 248.771 320.087 248.861 319.085C248.95 318.084 249.337 317.151 250.021 316.286C250.55 315.618 251.079 315.178 251.608 314.967C252.137 314.747 252.622 314.646 253.065 314.663C253.507 314.672 253.863 314.69 254.133 314.715L254.239 314.581L249.186 310.583L250.434 309.006L264.123 319.835L262.917 321.359L261.34 320.111L261.191 320.299C261.287 320.562 261.393 320.914 261.509 321.354C261.62 321.79 261.63 322.294 261.54 322.867C261.444 323.436 261.136 324.051 260.614 324.71ZM259.366 323.375C259.867 322.743 260.125 322.077 260.141 321.38C260.152 320.679 259.953 319.982 259.545 319.289C259.132 318.593 258.538 317.938 257.762 317.325C256.996 316.719 256.237 316.3 255.486 316.068C254.731 315.832 254.02 315.806 253.353 315.989C252.683 316.168 252.093 316.579 251.586 317.22C251.057 317.889 250.788 318.581 250.779 319.298C250.768 320.007 250.967 320.704 251.374 321.389C251.781 322.066 252.345 322.689 253.067 323.26C253.798 323.839 254.55 324.252 255.323 324.502C256.096 324.744 256.832 324.783 257.533 324.62C258.233 324.45 258.844 324.035 259.366 323.375Z" fill="#828282"/>
<path d="M272.087 310.532L262.279 301.861L263.566 300.405L265.048 301.715L265.138 301.613C264.811 301.005 264.703 300.333 264.815 299.598C264.926 298.862 265.242 298.201 265.761 297.614C265.859 297.503 265.984 297.366 266.135 297.204C266.286 297.042 266.403 296.922 266.487 296.844L268.019 298.199C267.961 298.239 267.839 298.339 267.651 298.5C267.463 298.652 267.281 298.828 267.104 299.028C266.683 299.505 266.406 300.019 266.275 300.571C266.144 301.114 266.157 301.649 266.314 302.174C266.47 302.692 266.77 303.147 267.213 303.538L273.419 309.025L272.087 310.532Z" fill="#828282"/>
<path d="M288.541 292.769L279.221 283.575L280.634 282.143L289.953 291.337L288.541 292.769ZM278.386 281.315C278.111 281.594 277.778 281.741 277.389 281.756C277.003 281.767 276.677 281.64 276.41 281.377C276.143 281.113 276.012 280.789 276.018 280.403C276.027 280.013 276.169 279.679 276.445 279.4C276.72 279.121 277.05 278.976 277.436 278.965C277.826 278.95 278.154 279.075 278.421 279.338C278.688 279.601 278.817 279.928 278.807 280.318C278.802 280.704 278.662 281.036 278.386 281.315Z" fill="#828282"/>
<path d="M302.863 261.158L308.084 274.102L306.57 275.478L294.184 269.045L295.798 267.577L305.488 272.868L305.589 272.776L301.248 262.625L302.863 261.158Z" fill="#828282"/>
<path d="M323.121 261.665C322.143 262.461 321.123 262.931 320.062 263.077C319.002 263.214 317.963 263.049 316.945 262.581C315.928 262.105 314.996 261.346 314.15 260.306C313.303 259.266 312.747 258.195 312.481 257.093C312.215 255.984 312.243 254.928 312.564 253.927C312.886 252.918 313.505 252.041 314.422 251.295C314.951 250.865 315.545 250.528 316.204 250.285C316.863 250.042 317.565 249.946 318.311 249.999C319.053 250.047 319.814 250.293 320.592 250.736C321.37 251.18 322.145 251.875 322.916 252.823L323.454 253.484L315.626 259.852L314.529 258.503L320.77 253.426C320.304 252.853 319.773 252.435 319.178 252.172C318.588 251.905 317.977 251.812 317.347 251.893C316.721 251.97 316.126 252.238 315.562 252.697C314.94 253.202 314.528 253.794 314.325 254.472C314.123 255.142 314.1 255.82 314.255 256.506C314.411 257.193 314.717 257.816 315.172 258.376L315.903 259.275C316.527 260.042 317.188 260.584 317.887 260.902C318.586 261.213 319.286 261.313 319.988 261.203C320.687 261.089 321.351 260.776 321.981 260.263C322.391 259.93 322.715 259.571 322.952 259.188C323.19 258.796 323.335 258.385 323.388 257.954C323.437 257.519 323.384 257.071 323.229 256.611L325.081 255.808C325.338 256.448 325.437 257.115 325.378 257.807C325.315 258.496 325.096 259.172 324.721 259.836C324.342 260.496 323.809 261.105 323.121 261.665Z" fill="#828282"/>
<path d="M333.401 243.386L338.03 249.757L336.403 250.939L328.708 240.348L330.28 239.206L331.483 240.861L331.621 240.761C331.478 240.043 331.541 239.337 331.81 238.643C332.075 237.945 332.607 237.305 333.407 236.724C334.124 236.203 334.859 235.894 335.61 235.797C336.358 235.696 337.097 235.834 337.827 236.21C338.553 236.581 339.244 237.217 339.898 238.118L344.787 244.847L343.16 246.03L338.351 239.41C337.747 238.578 337.06 238.087 336.29 237.937C335.517 237.782 334.754 237.978 334 238.526C333.481 238.904 333.098 239.353 332.853 239.876C332.612 240.395 332.531 240.956 332.611 241.558C332.69 242.161 332.954 242.77 333.401 243.386Z" fill="#828282"/>
<path d="M377.662 223.876L371.168 212.51L372.914 211.512L379.408 222.879L377.662 223.876ZM370.974 210.108C370.633 210.302 370.273 210.354 369.894 210.263C369.52 210.169 369.24 209.96 369.054 209.634C368.868 209.308 368.829 208.961 368.939 208.591C369.053 208.218 369.28 207.934 369.621 207.74C369.961 207.545 370.318 207.495 370.693 207.589C371.072 207.68 371.354 207.888 371.54 208.214C371.726 208.539 371.762 208.888 371.648 209.261C371.539 209.631 371.314 209.913 370.974 210.108Z" fill="#828282"/>
<path d="M392.096 207.086L395.623 214.127L393.824 215.028L387.961 203.324L389.698 202.453L390.615 204.282L390.767 204.206C390.743 203.474 390.921 202.788 391.299 202.147C391.675 201.501 392.304 200.957 393.188 200.514C393.981 200.117 394.756 199.933 395.513 199.96C396.267 199.982 396.974 200.238 397.633 200.728C398.288 201.213 398.866 201.953 399.365 202.949L403.09 210.386L401.292 211.287L397.627 203.972C397.167 203.052 396.569 202.456 395.835 202.182C395.098 201.903 394.312 201.972 393.479 202.389C392.905 202.677 392.455 203.059 392.127 203.534C391.805 204.007 391.634 204.547 391.614 205.154C391.594 205.762 391.754 206.406 392.096 207.086Z" fill="#828282"/>
<path d="M419.322 191.896L417.868 193.085C417.644 192.854 417.374 192.652 417.057 192.48C416.744 192.3 416.378 192.199 415.959 192.176C415.54 192.154 415.063 192.259 414.526 192.492C413.791 192.811 413.252 193.247 412.91 193.798C412.57 194.342 412.512 194.872 412.736 195.388C412.935 195.847 413.259 196.136 413.708 196.257C414.157 196.378 414.775 196.373 415.56 196.243L417.533 195.906C418.72 195.701 419.693 195.752 420.452 196.06C421.21 196.363 421.77 196.934 422.135 197.773C422.434 198.461 422.503 199.162 422.342 199.876C422.187 200.588 421.825 201.253 421.257 201.871C420.69 202.489 419.939 203.001 419.006 203.406C417.782 203.938 416.653 204.113 415.619 203.93C414.586 203.747 413.74 203.191 413.083 202.262L414.644 201.064C415.091 201.638 415.617 201.985 416.221 202.107C416.831 202.226 417.513 202.122 418.269 201.794C419.129 201.42 419.732 200.941 420.079 200.357C420.429 199.765 420.492 199.211 420.268 198.695C420.087 198.278 419.79 197.992 419.375 197.838C418.959 197.678 418.418 197.659 417.752 197.781L415.548 198.181C414.335 198.398 413.352 198.345 412.598 198.022C411.847 197.691 411.292 197.112 410.932 196.283C410.638 195.606 410.568 194.924 410.722 194.237C410.881 193.549 411.227 192.912 411.76 192.328C412.298 191.741 412.989 191.264 413.833 190.897C415.022 190.381 416.068 190.237 416.971 190.464C417.88 190.688 418.664 191.165 419.322 191.896Z" fill="#828282"/>
<path d="M438.946 195.06L434.394 182.786L436.28 182.087L440.832 194.361L438.946 195.06ZM434.594 180.385C434.227 180.521 433.863 180.514 433.504 180.362C433.15 180.209 432.908 179.956 432.777 179.604C432.647 179.253 432.666 178.903 432.834 178.556C433.008 178.207 433.278 177.964 433.646 177.828C434.013 177.692 434.374 177.7 434.728 177.854C435.087 178.006 435.332 178.257 435.462 178.609C435.593 178.96 435.571 179.311 435.398 179.66C435.23 180.007 434.962 180.249 434.594 180.385Z" fill="#828282"/>
<path d="M464.929 191.73C464.001 192.017 463.166 192.145 462.424 192.113C461.685 192.087 461.032 191.95 460.468 191.702C459.911 191.459 459.434 191.16 459.039 190.807L460.237 189.258C460.481 189.432 460.782 189.624 461.138 189.835C461.497 190.051 461.94 190.196 462.469 190.27C463.005 190.348 463.65 190.27 464.404 190.036C465.414 189.724 466.171 189.221 466.676 188.529C467.182 187.837 467.273 186.97 466.95 185.928L466.163 183.388L466 183.439C465.929 183.711 465.816 184.055 465.66 184.472C465.507 184.882 465.23 185.292 464.828 185.703C464.429 186.106 463.823 186.433 463.009 186.686C461.999 186.998 461.019 187.041 460.068 186.812C459.122 186.581 458.274 186.083 457.525 185.316C456.781 184.547 456.208 183.511 455.804 182.209C455.407 180.928 455.287 179.743 455.443 178.653C455.597 177.559 455.995 176.626 456.637 175.856C457.277 175.081 458.124 174.53 459.177 174.204C459.991 173.952 460.679 173.887 461.24 174.01C461.806 174.127 462.269 174.316 462.63 174.579C462.995 174.835 463.281 175.049 463.49 175.223L463.685 175.162L463.069 173.176L464.926 172.601L468.911 185.463C469.244 186.538 469.271 187.487 468.991 188.312C468.718 189.14 468.221 189.838 467.499 190.407C466.784 190.979 465.927 191.42 464.929 191.73ZM462.734 184.879C463.505 184.64 464.102 184.262 464.524 183.744C464.947 183.227 465.194 182.594 465.266 181.846C465.337 181.098 465.23 180.263 464.944 179.34C464.665 178.44 464.283 177.686 463.798 177.081C463.313 176.476 462.744 176.061 462.091 175.835C461.438 175.609 460.721 175.617 459.939 175.859C459.125 176.111 458.511 176.528 458.096 177.108C457.686 177.687 457.454 178.366 457.397 179.145C457.347 179.922 457.453 180.734 457.715 181.581C457.984 182.449 458.358 183.175 458.836 183.758C459.318 184.335 459.886 184.73 460.541 184.943C461.2 185.149 461.931 185.128 462.734 184.879Z" fill="#828282"/>
<path d="M477.984 174.489L479.9 182.127L477.949 182.617L473.701 165.687L475.652 165.197L477.212 171.414L477.377 171.372C477.51 170.642 477.826 170.009 478.324 169.474C478.827 168.932 479.577 168.536 480.574 168.285C481.44 168.068 482.241 168.052 482.978 168.236C483.714 168.414 484.351 168.814 484.887 169.435C485.428 170.049 485.835 170.902 486.109 171.993L488.134 180.061L486.183 180.551L484.191 172.615C483.938 171.606 483.481 170.892 482.819 170.472C482.161 170.046 481.372 169.948 480.452 170.179C479.813 170.339 479.273 170.618 478.834 171.015C478.4 171.411 478.103 171.905 477.94 172.496C477.784 173.086 477.798 173.75 477.984 174.489Z" fill="#828282"/>
<path d="M508.084 162.528L508.407 164.202L501.747 165.491L501.423 163.818L508.084 162.528ZM502.768 160.363L504.743 159.98L507.114 172.23C507.222 172.788 507.384 173.191 507.6 173.438C507.82 173.679 508.068 173.822 508.343 173.868C508.622 173.906 508.907 173.897 509.197 173.841C509.415 173.799 509.591 173.753 509.726 173.704C509.86 173.649 509.967 173.605 510.048 173.572L510.793 175.268C510.669 175.344 510.492 175.431 510.261 175.527C510.032 175.63 509.734 175.716 509.366 175.788C508.808 175.896 508.238 175.882 507.656 175.745C507.08 175.608 506.568 175.328 506.122 174.905C505.681 174.481 505.388 173.896 505.243 173.148L502.768 160.363Z" fill="#828282"/>
<path d="M530.808 162.029L529.088 162.781C528.934 162.499 528.728 162.231 528.47 161.98C528.217 161.723 527.891 161.526 527.494 161.392C527.097 161.257 526.609 161.229 526.029 161.309C525.235 161.418 524.599 161.692 524.12 162.131C523.646 162.563 523.448 163.058 523.524 163.615C523.592 164.11 523.826 164.477 524.226 164.714C524.626 164.952 525.221 165.114 526.013 165.2L528.003 165.408C529.202 165.53 530.125 165.842 530.773 166.344C531.42 166.84 531.806 167.541 531.931 168.447C532.033 169.19 531.911 169.884 531.563 170.528C531.221 171.171 530.694 171.714 529.98 172.156C529.267 172.598 528.406 172.889 527.399 173.027C526.076 173.209 524.942 173.072 523.996 172.617C523.05 172.162 522.386 171.399 522.004 170.328L523.83 169.595C524.106 170.268 524.519 170.745 525.068 171.025C525.622 171.304 526.307 171.388 527.124 171.276C528.052 171.148 528.763 170.85 529.255 170.381C529.751 169.905 529.961 169.389 529.885 168.831C529.823 168.381 529.613 168.026 529.256 167.765C528.899 167.499 528.383 167.335 527.709 167.272L525.478 167.063C524.251 166.945 523.319 166.628 522.681 166.114C522.047 165.593 521.669 164.885 521.546 163.99C521.445 163.258 521.561 162.583 521.895 161.963C522.234 161.343 522.739 160.824 523.41 160.405C524.086 159.985 524.88 159.712 525.792 159.587C527.076 159.41 528.122 159.553 528.931 160.016C529.746 160.477 530.371 161.148 530.808 162.029Z" fill="#828282"/>
<path d="M552.258 170.228C551.839 170.262 551.467 170.142 551.142 169.866C550.817 169.591 550.638 169.244 550.603 168.825C550.569 168.406 550.69 168.034 550.965 167.709C551.24 167.384 551.588 167.205 552.007 167.17C552.426 167.136 552.798 167.256 553.122 167.532C553.447 167.807 553.627 168.154 553.661 168.573C553.684 168.851 553.634 169.112 553.512 169.355C553.395 169.599 553.226 169.801 553.006 169.961C552.79 170.116 552.541 170.205 552.258 170.228Z" fill="#828282"/>
</svg>
