<svg width="1024" height="1126" viewBox="0 0 1024 1126" fill="none" xmlns="http://www.w3.org/2000/svg">
<path d="M513.06 148.764L96.8533 3.9037C48.9657 -12.7636 0 26.0254 0 80.6274V889.455C0 924.532 20.9014 955.579 51.6834 966.224L513.06 1125.78V904.857L146.267 777.47V604.858L513.06 732.246V526.242L146.267 398.854V240.027L513.06 366.278V148.764Z" fill="#111111"/>
<path d="M513.06 148.764L927.061 4.07334C974.966 -12.6691 1024 26.1245 1024 80.7673V889.529C1024 924.571 1003.14 955.594 972.401 966.269L513.06 1125.78V904.857L878.337 777.47V604.858L513.06 732.246V526.242L878.337 398.854V240.027L513.06 366.278V148.764Z" fill="#111111"/>
</svg>
